<svg id="svg" version="1.1" xmlns="http://www.w3.org/2000/svg" xmlns:xlink="http://www.w3.org/1999/xlink" width="400" height="400" viewBox="0, 0, 400,400"><g id="svgg"><path id="path0" d="M188.882 156.602 C 186.655 156.906,184.880 157.366,184.456 157.749 C 184.067 158.102,183.130 158.601,182.374 158.859 C 181.618 159.117,180.570 159.749,180.045 160.264 C 179.520 160.779,178.858 161.200,178.572 161.200 C 178.287 161.200,177.940 161.560,177.800 162.000 C 177.660 162.441,177.218 162.977,176.816 163.191 C 171.875 165.836,171.823 181.610,176.736 187.400 C 179.830 191.047,179.676 192.663,176.074 194.331 C 163.680 200.071,158.199 211.182,160.636 225.630 C 161.739 232.172,167.888 239.660,173.592 241.408 C 174.138 241.576,175.038 242.030,175.592 242.419 C 176.147 242.807,177.320 243.244,178.200 243.389 C 179.080 243.534,180.944 244.001,182.342 244.426 C 185.938 245.521,193.517 245.517,196.639 244.420 C 197.859 243.991,199.699 243.525,200.729 243.384 C 201.758 243.244,203.057 242.807,203.616 242.414 C 204.174 242.022,205.187 241.578,205.866 241.429 C 206.546 241.280,207.699 240.718,208.428 240.179 C 209.158 239.641,209.981 239.200,210.257 239.200 C 210.769 239.200,215.313 235.638,216.400 234.385 C 218.753 231.673,219.894 232.117,225.675 238.000 L 230.785 243.200 236.992 243.200 C 240.407 243.200,243.200 243.086,243.200 242.946 C 243.200 242.806,239.585 239.077,235.167 234.659 C 225.137 224.627,225.103 224.564,227.660 220.569 C 228.353 219.486,229.371 217.880,229.923 217.000 C 230.474 216.120,231.229 214.950,231.600 214.400 C 231.971 213.850,232.672 212.590,233.157 211.600 C 234.449 208.964,235.315 207.488,236.313 206.219 C 236.801 205.599,237.200 204.901,237.200 204.668 C 237.200 204.434,237.671 203.564,238.246 202.733 C 240.239 199.858,239.572 199.200,234.671 199.200 L 230.557 199.200 229.323 200.500 C 228.645 201.215,227.806 202.363,227.460 203.052 C 227.113 203.740,226.576 204.400,226.266 204.519 C 225.956 204.638,225.588 205.195,225.446 205.757 C 225.305 206.319,224.742 207.439,224.195 208.245 C 223.648 209.052,223.200 209.929,223.200 210.194 C 223.200 210.459,222.840 211.002,222.400 211.400 C 221.960 211.798,221.600 212.360,221.600 212.648 C 221.600 213.283,219.373 215.879,218.368 216.417 C 217.766 216.739,216.925 216.099,213.355 212.602 C 210.996 210.291,208.916 208.400,208.733 208.400 C 208.550 208.400,208.400 208.226,208.400 208.014 C 208.400 207.802,204.215 203.401,199.100 198.234 C 190.443 189.488,185.200 183.729,185.200 182.965 C 185.200 182.788,184.709 181.934,184.108 181.067 C 182.821 179.210,182.269 172.192,183.283 170.575 C 183.567 170.122,184.205 169.117,184.700 168.343 C 187.478 163.996,196.012 162.515,200.700 165.567 C 201.855 166.319,202.800 167.165,202.800 167.447 C 202.800 167.730,203.044 168.104,203.342 168.280 C 204.185 168.778,204.730 170.079,205.024 172.296 C 205.347 174.728,205.479 174.787,210.624 174.795 C 215.701 174.802,215.715 174.786,214.704 169.827 C 213.682 164.812,209.308 158.800,206.682 158.800 C 206.366 158.800,205.626 158.421,205.038 157.958 C 202.944 156.311,195.566 155.692,188.882 156.602 M114.899 175.565 C 113.523 175.737,112.083 176.159,111.699 176.502 C 111.314 176.845,110.190 177.341,109.200 177.604 C 108.210 177.867,107.310 178.220,107.200 178.388 C 107.090 178.555,106.280 179.071,105.400 179.535 C 94.596 185.220,94.659 203.282,105.500 208.084 C 106.435 208.499,107.200 208.972,107.200 209.136 C 107.200 209.300,108.034 209.657,109.053 209.930 C 110.072 210.202,111.330 210.759,111.848 211.167 C 112.367 211.574,113.648 212.033,114.695 212.185 C 115.743 212.338,117.030 212.739,117.556 213.077 C 118.081 213.415,119.881 213.859,121.556 214.064 C 123.230 214.269,125.237 214.766,126.016 215.168 C 126.795 215.570,128.055 216.035,128.816 216.202 C 129.577 216.368,130.709 216.930,131.331 217.452 C 131.953 217.973,132.704 218.400,133.000 218.400 C 133.705 218.400,135.999 220.338,136.002 220.936 C 136.004 221.191,136.244 221.858,136.536 222.418 C 138.289 225.777,135.332 234.000,132.370 234.000 C 132.149 234.000,131.420 234.405,130.750 234.900 C 129.280 235.987,116.333 236.306,115.103 235.285 C 114.762 235.002,113.857 234.462,113.093 234.085 C 111.070 233.088,108.414 230.544,107.861 229.074 C 107.598 228.373,106.960 227.119,106.444 226.287 L 105.506 224.775 101.053 224.887 L 96.600 225.000 96.639 227.501 C 96.663 229.086,96.895 230.258,97.273 230.701 C 97.600 231.085,98.112 232.030,98.410 232.800 C 98.708 233.570,99.322 234.588,99.776 235.062 C 100.229 235.537,100.824 236.167,101.097 236.462 C 102.798 238.301,106.344 240.674,108.557 241.455 C 109.423 241.761,110.397 242.232,110.722 242.501 C 113.841 245.090,133.436 244.822,134.920 242.171 C 135.096 241.857,135.555 241.600,135.940 241.600 C 137.052 241.600,141.234 238.619,143.170 236.446 C 150.314 228.431,146.613 213.412,136.800 210.593 C 136.250 210.435,135.530 210.077,135.200 209.798 C 134.870 209.519,133.617 209.084,132.416 208.831 C 131.215 208.579,129.955 208.124,129.616 207.819 C 129.277 207.515,127.830 207.058,126.400 206.804 C 124.970 206.550,123.420 206.098,122.957 205.799 C 122.493 205.500,120.963 205.050,119.557 204.799 C 118.150 204.548,116.455 204.025,115.788 203.637 C 115.122 203.249,114.092 202.809,113.500 202.661 C 112.908 202.512,112.232 202.033,111.997 201.595 C 111.763 201.158,111.342 200.800,111.061 200.800 C 108.437 200.800,106.516 193.363,108.139 189.487 C 108.812 187.880,111.614 185.310,113.090 184.947 C 113.700 184.796,114.642 184.387,115.183 184.037 C 116.670 183.074,125.406 183.121,126.789 184.100 C 127.333 184.485,128.066 184.800,128.419 184.800 C 130.424 184.800,136.000 190.626,136.000 192.721 C 136.000 194.976,136.467 195.200,141.171 195.200 C 145.480 195.200,145.515 195.192,145.767 194.190 C 146.163 192.612,145.217 188.137,144.158 186.576 C 143.631 185.800,143.200 184.999,143.200 184.796 C 143.200 184.594,142.852 184.242,142.427 184.014 C 142.002 183.787,141.550 183.274,141.424 182.875 C 141.070 181.761,135.950 178.189,134.090 177.758 C 133.490 177.619,132.243 177.074,131.318 176.547 C 129.437 175.474,120.080 174.915,114.899 175.565 M272.707 175.559 C 271.189 175.730,269.706 176.141,269.307 176.501 C 268.918 176.853,267.745 177.355,266.700 177.617 C 265.655 177.880,264.800 178.234,264.800 178.403 C 264.800 178.573,264.035 179.081,263.100 179.531 C 261.589 180.259,259.945 181.647,257.954 183.877 C 255.026 187.156,253.552 196.294,255.402 199.700 C 255.731 200.305,256.250 201.261,256.555 201.823 C 257.143 202.908,257.427 203.247,259.921 205.833 C 261.355 207.320,265.085 209.445,267.600 210.207 C 268.150 210.374,269.003 210.825,269.495 211.209 C 269.988 211.593,271.248 212.034,272.295 212.189 C 273.343 212.344,274.740 212.791,275.400 213.184 C 276.064 213.579,277.833 214.006,279.359 214.139 C 280.877 214.272,282.774 214.723,283.575 215.140 C 284.376 215.558,285.655 216.032,286.416 216.193 C 290.282 217.012,294.101 220.665,294.579 224.000 C 295.640 231.402,290.702 235.709,280.896 235.933 L 274.793 236.072 272.096 234.812 C 270.613 234.119,268.919 233.068,268.331 232.476 C 267.743 231.884,267.069 231.220,266.835 231.000 C 265.507 229.756,264.327 227.859,264.132 226.656 C 263.865 225.013,263.184 224.800,258.199 224.800 C 253.911 224.800,253.698 225.025,254.378 228.831 C 254.705 230.661,255.211 232.027,255.839 232.774 C 256.368 233.402,256.800 234.050,256.800 234.214 C 256.800 235.140,264.299 241.200,265.446 241.200 C 265.634 241.200,266.691 241.633,267.794 242.162 C 273.960 245.118,288.958 245.204,292.318 242.302 C 292.693 241.978,293.540 241.533,294.200 241.312 C 304.695 237.805,308.109 220.385,299.567 213.928 C 298.891 213.418,297.947 212.622,297.469 212.159 C 296.991 211.697,295.880 211.084,295.000 210.798 C 294.120 210.513,293.040 210.046,292.600 209.762 C 292.160 209.477,290.903 209.044,289.806 208.800 C 288.710 208.555,287.540 208.110,287.206 207.810 C 286.873 207.511,285.430 207.056,284.000 206.800 C 282.570 206.544,281.130 206.100,280.800 205.815 C 280.470 205.529,278.940 205.081,277.400 204.819 C 275.860 204.556,274.060 204.018,273.400 203.622 C 272.740 203.227,271.749 202.797,271.199 202.669 C 267.036 201.695,263.069 194.108,264.993 190.800 C 265.313 190.250,265.778 189.305,266.027 188.700 C 266.275 188.095,266.624 187.600,266.801 187.600 C 266.979 187.600,267.878 186.970,268.800 186.200 C 269.722 185.430,270.779 184.800,271.149 184.800 C 271.519 184.800,272.267 184.485,272.811 184.100 C 273.621 183.527,274.673 183.400,278.617 183.400 C 282.530 183.400,283.634 183.531,284.503 184.100 C 285.091 184.485,285.803 184.800,286.086 184.801 C 287.928 184.803,291.031 187.901,292.800 191.504 L 294.600 195.170 299.100 195.185 L 303.600 195.200 303.586 193.300 C 303.553 188.764,299.334 181.704,295.494 179.759 C 294.782 179.398,293.930 178.878,293.600 178.602 C 293.270 178.327,292.280 177.877,291.400 177.602 C 290.520 177.328,289.238 176.765,288.552 176.351 C 287.117 175.486,277.579 175.010,272.707 175.559 M189.074 201.300 C 190.068 202.235,191.157 203.291,191.493 203.647 C 193.574 205.848,195.594 207.888,196.246 208.445 C 196.661 208.800,197.975 210.150,199.166 211.445 C 200.357 212.740,201.552 213.890,201.820 214.000 C 202.088 214.110,202.914 214.920,203.655 215.800 C 204.396 216.680,206.396 218.750,208.101 220.400 C 212.427 224.590,212.343 226.927,207.754 230.000 C 207.261 230.330,205.767 231.365,204.434 232.300 C 203.100 233.235,201.803 234.000,201.552 234.000 C 201.300 234.000,200.443 234.405,199.647 234.900 C 198.297 235.739,197.675 235.808,190.400 235.926 L 182.600 236.052 180.135 234.726 C 171.587 230.129,168.191 222.520,170.406 212.926 C 171.152 209.693,176.777 203.037,179.847 201.755 C 180.694 201.401,181.819 200.771,182.347 200.356 C 184.176 198.917,186.954 199.307,189.074 201.300 " stroke="none" fill="#f7fafc" fill-rule="evenodd"></path><path id="path1" d="M164.000 0.600 C 164.000 1.093,163.288 1.200,159.991 1.200 C 156.104 1.200,155.969 1.230,155.527 2.200 C 155.101 3.134,154.879 3.200,152.136 3.200 C 149.271 3.200,149.200 3.224,149.200 4.200 C 149.200 5.234,147.203 5.485,141.162 5.213 C 140.159 5.167,139.371 5.441,138.562 6.116 C 137.817 6.736,136.687 7.163,135.416 7.303 C 134.052 7.452,133.214 7.789,132.738 8.377 C 132.331 8.880,131.331 9.355,130.322 9.527 C 128.957 9.759,128.574 10.004,128.472 10.710 C 128.352 11.545,128.147 11.600,125.154 11.600 C 122.284 11.600,121.863 11.701,120.964 12.600 C 120.414 13.150,119.511 13.600,118.958 13.600 C 118.390 13.600,118.060 13.774,118.200 14.000 C 118.336 14.220,118.257 14.400,118.024 14.400 C 117.791 14.400,117.600 14.660,117.600 14.978 C 117.600 15.384,117.034 15.592,115.700 15.678 C 113.989 15.788,113.788 15.903,113.679 16.841 C 113.579 17.706,113.395 17.850,112.583 17.695 C 110.547 17.305,107.984 17.989,107.590 19.028 C 107.333 19.703,106.911 20.000,106.210 20.000 C 105.399 20.000,105.200 20.197,105.200 21.000 C 105.200 21.979,103.981 22.334,101.677 22.025 C 101.390 21.986,101.186 22.190,101.225 22.477 C 101.404 23.813,101.160 24.000,99.246 24.000 C 97.630 24.000,97.184 24.164,96.669 24.951 C 96.298 25.517,95.477 26.009,94.645 26.165 C 93.784 26.327,93.154 26.715,93.008 27.174 C 92.878 27.585,92.328 28.032,91.786 28.168 C 91.069 28.348,90.800 28.687,90.800 29.408 C 90.800 30.329,90.660 30.400,88.843 30.400 C 87.090 30.400,86.861 30.504,86.636 31.400 C 86.418 32.268,86.043 32.485,84.949 32.375 C 84.812 32.361,84.492 32.766,84.240 33.275 C 83.956 33.845,83.210 34.342,82.295 34.569 C 81.431 34.784,80.713 35.244,80.578 35.669 C 80.450 36.071,80.026 36.400,79.635 36.400 C 79.244 36.400,78.581 36.779,78.162 37.243 C 77.743 37.706,76.727 38.429,75.904 38.849 C 74.662 39.482,74.365 39.881,74.156 41.186 C 73.909 42.732,73.871 42.762,72.052 42.880 C 70.480 42.982,70.181 43.136,70.072 43.900 C 69.980 44.549,69.676 44.800,68.980 44.800 C 68.291 44.800,67.945 45.079,67.770 45.777 C 67.621 46.372,67.187 46.802,66.662 46.877 C 66.059 46.963,65.810 47.270,65.832 47.900 C 65.852 48.466,65.629 48.801,65.232 48.801 C 64.343 48.804,62.000 50.293,62.000 50.856 C 62.000 51.127,62.337 51.019,62.802 50.598 C 63.244 50.198,63.702 49.969,63.821 50.088 C 64.140 50.407,62.837 51.600,62.171 51.600 C 61.857 51.600,61.600 51.960,61.600 52.400 C 61.600 52.936,61.333 53.200,60.791 53.200 C 60.333 53.200,59.799 53.603,59.559 54.130 C 59.269 54.767,58.609 55.177,57.468 55.430 C 55.930 55.771,55.771 55.930,55.430 57.468 C 55.177 58.609,54.767 59.269,54.130 59.559 C 53.603 59.799,53.200 60.333,53.200 60.791 C 53.200 61.333,52.936 61.600,52.400 61.600 C 51.960 61.600,51.600 61.857,51.600 62.171 C 51.600 62.837,50.407 64.140,50.088 63.821 C 49.969 63.702,50.198 63.244,50.598 62.802 C 51.019 62.337,51.127 62.000,50.856 62.000 C 50.293 62.000,48.804 64.343,48.801 65.232 C 48.801 65.629,48.466 65.852,47.900 65.832 C 47.270 65.810,46.963 66.059,46.877 66.662 C 46.802 67.187,46.372 67.621,45.777 67.770 C 45.079 67.945,44.800 68.291,44.800 68.980 C 44.800 69.676,44.549 69.980,43.900 70.072 C 43.136 70.181,42.982 70.480,42.880 72.052 C 42.762 73.871,42.732 73.909,41.186 74.156 C 39.881 74.365,39.482 74.662,38.849 75.904 C 38.429 76.727,37.706 77.743,37.243 78.162 C 36.779 78.581,36.400 79.244,36.400 79.635 C 36.400 80.026,36.071 80.450,35.669 80.578 C 35.244 80.713,34.784 81.431,34.569 82.295 C 34.342 83.210,33.845 83.956,33.275 84.240 C 32.766 84.492,32.361 84.812,32.375 84.949 C 32.485 86.043,32.268 86.418,31.400 86.636 C 30.504 86.861,30.400 87.090,30.400 88.843 C 30.400 90.660,30.329 90.800,29.408 90.800 C 28.687 90.800,28.348 91.069,28.168 91.786 C 28.032 92.328,27.585 92.878,27.174 93.008 C 26.715 93.154,26.327 93.784,26.165 94.645 C 26.009 95.477,25.517 96.298,24.951 96.669 C 24.164 97.184,24.000 97.630,24.000 99.246 C 24.000 101.160,23.813 101.404,22.477 101.225 C 22.190 101.186,21.986 101.390,22.025 101.677 C 22.334 103.981,21.979 105.200,21.000 105.200 C 20.197 105.200,20.000 105.399,20.000 106.210 C 20.000 106.911,19.703 107.333,19.028 107.590 C 17.989 107.984,17.305 110.547,17.695 112.583 C 17.850 113.395,17.706 113.579,16.841 113.679 C 15.903 113.788,15.788 113.989,15.678 115.700 C 15.592 117.034,15.384 117.600,14.978 117.600 C 14.660 117.600,14.400 117.791,14.400 118.024 C 14.400 118.257,14.220 118.336,14.000 118.200 C 13.774 118.060,13.600 118.390,13.600 118.958 C 13.600 119.511,13.150 120.414,12.600 120.964 C 11.701 121.863,11.600 122.284,11.600 125.154 C 11.600 128.147,11.545 128.352,10.710 128.472 C 10.004 128.574,9.759 128.957,9.527 130.322 C 9.355 131.331,8.880 132.331,8.377 132.738 C 7.789 133.214,7.452 134.052,7.303 135.416 C 7.163 136.687,6.736 137.817,6.116 138.562 C 5.441 139.371,5.167 140.159,5.213 141.162 C 5.485 147.203,5.234 149.200,4.200 149.200 C 3.224 149.200,3.200 149.271,3.200 152.136 C 3.200 154.879,3.134 155.101,2.200 155.527 C 1.230 155.969,1.200 156.104,1.200 159.991 C 1.200 163.288,1.093 164.000,0.600 164.000 C 0.071 164.000,0.000 168.267,0.000 200.000 C 0.000 231.733,0.071 236.000,0.600 236.000 C 1.093 236.000,1.200 236.712,1.200 240.009 C 1.200 243.896,1.230 244.031,2.200 244.473 C 3.132 244.898,3.200 245.124,3.200 247.821 C 3.200 250.573,3.249 250.725,4.200 250.964 C 5.230 251.223,5.472 253.098,5.213 258.838 C 5.167 259.841,5.441 260.629,6.116 261.438 C 6.736 262.183,7.163 263.313,7.303 264.584 C 7.452 265.948,7.789 266.786,8.377 267.262 C 8.880 267.669,9.355 268.669,9.527 269.678 C 9.759 271.043,10.004 271.426,10.710 271.528 C 11.545 271.648,11.600 271.853,11.600 274.846 C 11.600 277.716,11.701 278.137,12.600 279.036 C 13.150 279.586,13.600 280.475,13.600 281.011 C 13.600 281.711,13.876 282.054,14.580 282.231 C 15.419 282.441,15.577 282.743,15.680 284.338 C 15.788 286.009,15.907 286.212,16.841 286.321 C 17.706 286.421,17.850 286.605,17.695 287.417 C 17.305 289.453,17.989 292.016,19.028 292.410 C 19.703 292.667,20.000 293.089,20.000 293.790 C 20.000 294.601,20.197 294.800,21.000 294.800 C 21.976 294.800,22.329 295.998,22.030 298.300 C 21.993 298.586,22.400 298.800,22.982 298.800 C 23.934 298.800,24.000 298.927,24.000 300.754 C 24.000 302.370,24.164 302.816,24.951 303.331 C 25.517 303.702,26.009 304.523,26.165 305.355 C 26.327 306.216,26.715 306.846,27.174 306.992 C 27.585 307.122,28.032 307.672,28.168 308.214 C 28.348 308.931,28.687 309.200,29.408 309.200 C 30.329 309.200,30.400 309.340,30.400 311.157 C 30.400 312.910,30.504 313.139,31.400 313.364 C 32.095 313.539,32.400 313.889,32.400 314.513 C 32.400 315.060,32.751 315.564,33.300 315.805 C 33.868 316.054,34.336 316.752,34.569 317.695 C 34.785 318.569,35.242 319.286,35.669 319.422 C 36.071 319.550,36.400 319.974,36.400 320.365 C 36.400 320.756,36.779 321.419,37.243 321.838 C 37.706 322.257,38.429 323.273,38.849 324.096 C 39.482 325.338,39.881 325.635,41.186 325.844 C 42.732 326.091,42.762 326.129,42.880 327.948 C 42.980 329.493,43.132 329.800,43.800 329.800 C 44.375 329.800,44.636 330.109,44.726 330.899 C 44.815 331.667,45.139 332.070,45.804 332.237 C 46.374 332.380,46.803 332.820,46.877 333.338 C 46.961 333.928,47.273 334.191,47.864 334.172 C 48.504 334.151,48.788 334.440,48.956 335.282 C 49.257 336.784,50.914 338.400,52.155 338.400 C 52.940 338.400,53.173 338.630,53.273 339.500 C 53.360 340.255,53.660 340.637,54.227 340.718 C 54.838 340.806,55.151 341.275,55.427 342.518 C 55.772 344.072,55.927 344.228,57.468 344.570 C 58.609 344.823,59.269 345.233,59.559 345.870 C 59.792 346.382,60.327 346.800,60.747 346.800 C 61.302 346.800,61.582 347.179,61.771 348.183 C 62.049 349.668,63.737 351.200,65.094 351.200 C 65.635 351.200,65.854 351.467,65.832 352.100 C 65.810 352.730,66.059 353.037,66.662 353.123 C 67.187 353.198,67.621 353.628,67.770 354.223 C 67.945 354.921,68.291 355.200,68.980 355.200 C 69.676 355.200,69.980 355.451,70.072 356.100 C 70.181 356.864,70.480 357.018,72.052 357.120 C 73.871 357.238,73.909 357.268,74.156 358.814 C 74.365 360.119,74.662 360.518,75.904 361.151 C 76.727 361.571,77.743 362.294,78.162 362.757 C 78.581 363.221,79.244 363.600,79.635 363.600 C 80.026 363.600,80.454 363.941,80.587 364.358 C 80.733 364.819,81.348 365.214,82.159 365.366 C 83.524 365.622,85.013 366.854,84.534 367.332 C 84.387 367.480,84.743 367.600,85.326 367.600 C 86.122 367.600,86.447 367.848,86.636 368.600 C 86.861 369.496,87.090 369.600,88.843 369.600 C 90.660 369.600,90.800 369.671,90.800 370.592 C 90.800 371.313,91.069 371.652,91.786 371.832 C 92.328 371.968,92.878 372.415,93.008 372.826 C 93.154 373.285,93.784 373.673,94.645 373.835 C 95.477 373.991,96.298 374.483,96.669 375.049 C 97.184 375.836,97.630 376.000,99.246 376.000 C 101.152 376.000,101.400 376.187,101.230 377.500 C 101.185 377.842,101.800 378.000,103.182 378.000 C 105.073 378.000,105.200 378.063,105.200 379.010 C 105.200 379.805,105.447 380.069,106.365 380.253 C 107.005 380.381,107.611 380.799,107.711 381.182 C 107.908 381.936,109.551 382.400,112.022 382.400 C 113.296 382.400,113.565 382.547,113.672 383.300 C 113.781 384.065,114.080 384.218,115.662 384.320 C 117.257 384.423,117.559 384.581,117.769 385.420 C 117.946 386.124,118.289 386.400,118.989 386.400 C 119.525 386.400,120.414 386.850,120.964 387.400 C 121.863 388.299,122.284 388.400,125.154 388.400 C 128.157 388.400,128.352 388.453,128.472 389.300 C 128.573 390.009,128.980 390.279,130.399 390.577 C 131.388 390.785,132.475 391.298,132.815 391.717 C 133.209 392.205,134.146 392.558,135.416 392.697 C 136.687 392.837,137.817 393.264,138.562 393.884 C 139.371 394.559,140.159 394.833,141.162 394.787 C 147.259 394.512,149.200 394.763,149.200 395.825 C 149.200 396.562,149.397 396.830,149.900 396.779 C 153.062 396.457,155.083 396.824,155.527 397.800 C 155.969 398.770,156.104 398.800,159.991 398.800 C 163.288 398.800,164.000 398.907,164.000 399.400 C 164.000 399.929,168.267 400.000,200.000 400.000 C 231.733 400.000,236.000 399.929,236.000 399.400 C 236.000 398.907,236.712 398.800,240.009 398.800 C 243.896 398.800,244.031 398.770,244.473 397.800 C 244.915 396.829,246.889 396.465,250.052 396.771 C 250.446 396.809,250.806 396.430,250.960 395.817 C 251.223 394.767,253.063 394.527,258.838 394.787 C 259.841 394.833,260.629 394.559,261.438 393.884 C 262.183 393.264,263.313 392.837,264.584 392.697 C 265.854 392.558,266.791 392.205,267.185 391.717 C 267.525 391.298,268.612 390.785,269.601 390.577 C 271.020 390.279,271.427 390.009,271.528 389.300 C 271.648 388.453,271.843 388.400,274.846 388.400 C 277.716 388.400,278.137 388.299,279.036 387.400 C 279.586 386.850,280.489 386.400,281.042 386.400 C 281.610 386.400,281.940 386.226,281.800 386.000 C 281.664 385.780,281.743 385.600,281.976 385.600 C 282.209 385.600,282.400 385.340,282.400 385.022 C 282.400 384.616,282.966 384.408,284.300 384.322 C 285.921 384.218,286.219 384.068,286.328 383.300 C 286.435 382.547,286.704 382.400,287.978 382.400 C 290.478 382.400,292.091 381.937,292.294 381.162 C 292.402 380.748,292.929 380.393,293.541 380.323 C 294.361 380.228,294.629 379.952,294.727 379.100 C 294.846 378.066,294.971 378.000,296.827 378.000 C 298.665 378.000,298.800 377.932,298.800 377.000 C 298.800 376.070,298.936 376.000,300.754 376.000 C 302.370 376.000,302.816 375.836,303.331 375.049 C 303.702 374.483,304.523 373.991,305.355 373.835 C 306.216 373.673,306.846 373.285,306.992 372.826 C 307.122 372.415,307.672 371.968,308.214 371.832 C 308.931 371.652,309.200 371.313,309.200 370.592 C 309.200 369.669,309.338 369.600,311.192 369.600 C 312.984 369.600,313.210 369.499,313.436 368.600 C 313.606 367.920,313.963 367.600,314.549 367.600 C 315.059 367.600,315.571 367.233,315.805 366.700 C 316.054 366.132,316.752 365.664,317.695 365.431 C 318.569 365.215,319.286 364.758,319.422 364.331 C 319.550 363.929,319.974 363.600,320.365 363.600 C 320.756 363.600,321.419 363.221,321.838 362.757 C 322.257 362.294,323.273 361.571,324.096 361.151 C 325.338 360.518,325.635 360.119,325.844 358.814 C 326.091 357.268,326.129 357.238,327.948 357.120 C 329.493 357.020,329.800 356.868,329.800 356.200 C 329.800 355.625,330.109 355.364,330.899 355.274 C 331.667 355.185,332.070 354.861,332.237 354.196 C 332.380 353.626,332.820 353.197,333.338 353.123 C 333.941 353.037,334.190 352.730,334.168 352.100 C 334.146 351.467,334.365 351.200,334.906 351.200 C 335.823 351.200,338.000 349.730,338.000 349.111 C 338.000 348.872,337.639 349.003,337.198 349.402 C 336.756 349.802,336.298 350.031,336.179 349.912 C 335.860 349.593,337.163 348.400,337.829 348.400 C 338.143 348.400,338.400 348.063,338.400 347.650 C 338.400 347.137,338.779 346.824,339.600 346.660 C 340.410 346.498,340.800 346.181,340.800 345.687 C 340.800 345.150,341.255 344.853,342.500 344.577 C 344.081 344.226,344.226 344.081,344.577 342.500 C 344.853 341.255,345.150 340.800,345.687 340.800 C 346.181 340.800,346.498 340.410,346.660 339.600 C 346.824 338.779,347.137 338.400,347.650 338.400 C 348.063 338.400,348.400 338.143,348.400 337.829 C 348.400 337.163,349.593 335.860,349.912 336.179 C 350.031 336.298,349.802 336.756,349.402 337.198 C 349.003 337.639,348.872 338.000,349.111 338.000 C 349.730 338.000,351.200 335.823,351.200 334.906 C 351.200 334.365,351.467 334.146,352.100 334.168 C 352.730 334.190,353.037 333.941,353.123 333.338 C 353.197 332.820,353.626 332.380,354.196 332.237 C 354.861 332.070,355.185 331.667,355.274 330.899 C 355.364 330.109,355.625 329.800,356.200 329.800 C 356.868 329.800,357.020 329.493,357.120 327.948 C 357.238 326.129,357.268 326.091,358.814 325.844 C 360.119 325.635,360.518 325.338,361.151 324.096 C 361.571 323.273,362.294 322.257,362.757 321.838 C 363.221 321.419,363.600 320.756,363.600 320.365 C 363.600 319.974,363.929 319.550,364.331 319.422 C 364.758 319.286,365.215 318.569,365.431 317.695 C 365.664 316.752,366.132 316.054,366.700 315.805 C 367.233 315.571,367.600 315.059,367.600 314.549 C 367.600 313.963,367.920 313.606,368.600 313.436 C 369.499 313.210,369.600 312.984,369.600 311.192 C 369.600 309.338,369.669 309.200,370.592 309.200 C 371.313 309.200,371.652 308.931,371.832 308.214 C 371.968 307.672,372.415 307.122,372.826 306.992 C 373.285 306.846,373.673 306.216,373.835 305.355 C 373.991 304.523,374.483 303.702,375.049 303.331 C 375.836 302.816,376.000 302.370,376.000 300.754 C 376.000 298.936,376.070 298.800,377.000 298.800 C 377.932 298.800,378.000 298.665,378.000 296.827 C 378.000 294.971,378.066 294.846,379.100 294.727 C 379.952 294.629,380.228 294.361,380.323 293.541 C 380.393 292.929,380.748 292.402,381.162 292.294 C 381.937 292.091,382.400 290.478,382.400 287.978 C 382.400 286.704,382.547 286.435,383.300 286.328 C 384.068 286.219,384.218 285.921,384.322 284.300 C 384.408 282.966,384.616 282.400,385.022 282.400 C 385.340 282.400,385.600 282.209,385.600 281.976 C 385.600 281.743,385.780 281.664,386.000 281.800 C 386.226 281.940,386.400 281.610,386.400 281.042 C 386.400 280.489,386.850 279.586,387.400 279.036 C 388.299 278.137,388.400 277.716,388.400 274.846 C 388.400 271.843,388.453 271.648,389.300 271.528 C 390.009 271.427,390.279 271.020,390.577 269.601 C 390.785 268.612,391.298 267.525,391.717 267.185 C 392.205 266.791,392.558 265.854,392.697 264.584 C 392.837 263.313,393.264 262.183,393.884 261.438 C 394.559 260.629,394.833 259.841,394.787 258.838 C 394.527 253.063,394.767 251.223,395.817 250.960 C 396.430 250.806,396.809 250.446,396.771 250.052 C 396.465 246.889,396.829 244.915,397.800 244.473 C 398.770 244.031,398.800 243.896,398.800 240.009 C 398.800 236.712,398.907 236.000,399.400 236.000 C 399.929 236.000,400.000 231.733,400.000 200.000 C 400.000 168.267,399.929 164.000,399.400 164.000 C 398.907 164.000,398.800 163.288,398.800 159.991 C 398.800 156.104,398.770 155.969,397.800 155.527 C 396.824 155.083,396.457 153.062,396.779 149.900 C 396.830 149.397,396.562 149.200,395.825 149.200 C 394.763 149.200,394.512 147.259,394.787 141.162 C 394.833 140.159,394.559 139.371,393.884 138.562 C 393.264 137.817,392.837 136.687,392.697 135.416 C 392.558 134.146,392.205 133.209,391.717 132.815 C 391.298 132.475,390.785 131.388,390.577 130.399 C 390.279 128.980,390.009 128.573,389.300 128.472 C 388.453 128.352,388.400 128.157,388.400 125.154 C 388.400 122.284,388.299 121.863,387.400 120.964 C 386.850 120.414,386.400 119.525,386.400 118.989 C 386.400 118.289,386.124 117.946,385.420 117.769 C 384.581 117.559,384.423 117.257,384.320 115.662 C 384.218 114.080,384.065 113.781,383.300 113.672 C 382.547 113.565,382.400 113.296,382.400 112.022 C 382.400 109.551,381.936 107.908,381.182 107.711 C 380.799 107.611,380.381 107.005,380.253 106.365 C 380.069 105.447,379.805 105.200,379.010 105.200 C 378.063 105.200,378.000 105.073,378.000 103.182 C 378.000 101.800,377.842 101.185,377.500 101.230 C 376.187 101.400,376.000 101.152,376.000 99.246 C 376.000 97.630,375.836 97.184,375.049 96.669 C 374.483 96.298,373.991 95.477,373.835 94.645 C 373.673 93.784,373.285 93.154,372.826 93.008 C 372.415 92.878,371.968 92.328,371.832 91.786 C 371.652 91.069,371.313 90.800,370.592 90.800 C 369.671 90.800,369.600 90.660,369.600 88.843 C 369.600 87.090,369.496 86.861,368.600 86.636 C 367.848 86.447,367.600 86.122,367.600 85.326 C 367.600 84.743,367.480 84.387,367.332 84.534 C 366.854 85.013,365.622 83.524,365.366 82.159 C 365.214 81.348,364.819 80.733,364.358 80.587 C 363.941 80.454,363.600 80.026,363.600 79.635 C 363.600 79.244,363.221 78.581,362.757 78.162 C 362.294 77.743,361.571 76.727,361.151 75.904 C 360.518 74.662,360.119 74.365,358.814 74.156 C 357.268 73.909,357.238 73.871,357.120 72.052 C 357.018 70.480,356.864 70.181,356.100 70.072 C 355.451 69.980,355.200 69.676,355.200 68.980 C 355.200 68.291,354.921 67.945,354.223 67.770 C 353.628 67.621,353.198 67.187,353.123 66.662 C 353.037 66.059,352.730 65.810,352.100 65.832 C 351.467 65.854,351.200 65.635,351.200 65.094 C 351.200 63.737,349.668 62.049,348.183 61.771 C 347.179 61.582,346.800 61.302,346.800 60.747 C 346.800 60.327,346.382 59.792,345.870 59.559 C 345.233 59.269,344.823 58.609,344.570 57.468 C 344.228 55.927,344.072 55.772,342.518 55.427 C 341.275 55.151,340.806 54.838,340.718 54.227 C 340.637 53.660,340.255 53.360,339.500 53.273 C 338.630 53.173,338.400 52.940,338.400 52.155 C 338.400 50.914,336.784 49.257,335.282 48.956 C 334.440 48.788,334.151 48.504,334.172 47.864 C 334.191 47.273,333.928 46.961,333.338 46.877 C 332.820 46.803,332.380 46.374,332.237 45.804 C 332.070 45.139,331.667 44.815,330.899 44.726 C 330.109 44.636,329.800 44.375,329.800 43.800 C 329.800 43.132,329.493 42.980,327.948 42.880 C 326.129 42.762,326.091 42.732,325.844 41.186 C 325.635 39.881,325.338 39.482,324.096 38.849 C 323.273 38.429,322.257 37.706,321.838 37.243 C 321.419 36.779,320.756 36.400,320.365 36.400 C 319.974 36.400,319.550 36.071,319.422 35.669 C 319.286 35.242,318.569 34.785,317.695 34.569 C 316.752 34.336,316.054 33.868,315.805 33.300 C 315.564 32.751,315.060 32.400,314.513 32.400 C 313.889 32.400,313.539 32.095,313.364 31.400 C 313.139 30.504,312.910 30.400,311.157 30.400 C 309.340 30.400,309.200 30.329,309.200 29.408 C 309.200 28.687,308.931 28.348,308.214 28.168 C 307.672 28.032,307.122 27.585,306.992 27.174 C 306.846 26.715,306.216 26.327,305.355 26.165 C 304.523 26.009,303.702 25.517,303.331 24.951 C 302.816 24.164,302.370 24.000,300.754 24.000 C 298.927 24.000,298.800 23.934,298.800 22.982 C 298.800 22.400,298.586 21.993,298.300 22.030 C 295.998 22.329,294.800 21.976,294.800 21.000 C 294.800 20.197,294.601 20.000,293.790 20.000 C 293.089 20.000,292.667 19.703,292.410 19.028 C 292.016 17.989,289.453 17.305,287.417 17.695 C 286.605 17.850,286.421 17.706,286.321 16.841 C 286.212 15.907,286.009 15.788,284.338 15.680 C 282.743 15.577,282.441 15.419,282.231 14.580 C 282.054 13.876,281.711 13.600,281.011 13.600 C 280.475 13.600,279.586 13.150,279.036 12.600 C 278.137 11.701,277.716 11.600,274.846 11.600 C 271.853 11.600,271.648 11.545,271.528 10.710 C 271.426 10.004,271.043 9.759,269.678 9.527 C 268.669 9.355,267.669 8.880,267.262 8.377 C 266.786 7.789,265.948 7.452,264.584 7.303 C 263.313 7.163,262.183 6.736,261.438 6.116 C 260.629 5.441,259.841 5.167,258.838 5.213 C 253.098 5.472,251.223 5.230,250.964 4.200 C 250.725 3.249,250.573 3.200,247.821 3.200 C 245.124 3.200,244.898 3.132,244.473 2.200 C 244.031 1.230,243.896 1.200,240.009 1.200 C 236.712 1.200,236.000 1.093,236.000 0.600 C 236.000 0.071,231.733 0.000,200.000 0.000 C 168.267 0.000,164.000 0.071,164.000 0.600 M337.200 50.600 C 337.608 51.091,337.580 51.200,337.049 51.200 C 336.692 51.200,336.400 50.930,336.400 50.600 C 336.400 50.270,336.468 50.000,336.551 50.000 C 336.634 50.000,336.926 50.270,337.200 50.600 M350.000 63.636 C 350.000 63.823,349.730 63.871,349.400 63.745 C 349.070 63.618,348.800 63.242,348.800 62.908 C 348.800 62.415,348.912 62.395,349.400 62.800 C 349.730 63.074,350.000 63.450,350.000 63.636 M201.718 154.063 C 202.194 154.318,202.825 154.768,203.120 155.063 C 203.416 155.358,204.234 155.600,204.940 155.600 C 206.042 155.600,207.736 156.383,208.400 157.200 C 208.510 157.335,209.185 157.682,209.900 157.971 C 210.615 158.260,211.200 158.724,211.200 159.002 C 211.200 159.280,211.558 159.600,211.995 159.715 C 212.433 159.829,212.970 160.395,213.189 160.972 C 213.409 161.548,213.844 162.119,214.157 162.239 C 214.471 162.359,214.958 163.030,215.241 163.729 C 215.524 164.428,216.110 165.489,216.543 166.086 C 217.168 166.949,217.368 168.031,217.516 171.353 C 217.784 177.379,217.533 177.600,210.418 177.600 C 204.299 177.600,203.807 177.350,203.365 174.023 C 203.219 172.918,202.852 171.809,202.549 171.558 C 202.247 171.307,202.000 170.892,202.000 170.636 C 202.000 167.173,189.702 165.219,187.994 168.410 C 187.778 168.815,187.265 169.252,186.855 169.383 C 185.171 169.917,185.340 179.518,187.068 181.505 C 187.592 182.107,188.120 182.982,188.241 183.450 C 188.362 183.917,188.898 184.498,189.431 184.741 C 189.964 184.984,190.400 185.436,190.400 185.745 C 190.400 186.055,190.850 186.603,191.400 186.963 C 191.950 187.324,192.400 187.872,192.400 188.182 C 192.400 188.492,192.733 188.852,193.139 188.981 C 193.546 189.110,194.082 189.662,194.331 190.208 C 194.579 190.753,195.061 191.200,195.400 191.200 C 195.739 191.200,196.221 191.647,196.469 192.192 C 196.718 192.738,197.245 193.287,197.640 193.413 C 198.036 193.538,198.467 193.983,198.600 194.400 C 198.733 194.817,199.183 195.267,199.600 195.400 C 200.017 195.533,200.464 195.972,200.593 196.377 C 200.721 196.782,201.180 197.206,201.611 197.319 C 202.043 197.432,202.518 197.842,202.667 198.231 C 203.012 199.130,207.463 203.600,208.013 203.600 C 208.239 203.600,208.535 203.887,208.670 204.239 C 209.436 206.234,217.988 213.970,218.451 213.087 C 218.707 212.599,219.140 212.068,219.413 211.906 C 219.686 211.744,220.022 211.009,220.160 210.273 C 220.298 209.537,220.859 208.546,221.405 208.070 C 221.952 207.594,222.400 206.956,222.400 206.652 C 222.400 206.347,222.690 205.857,223.045 205.563 C 223.671 205.043,224.716 203.199,226.371 199.695 C 227.450 197.410,228.191 197.200,235.164 197.200 C 240.504 197.200,241.144 197.275,241.777 197.975 C 242.678 198.970,242.292 201.811,241.161 202.517 C 240.743 202.778,240.400 203.278,240.400 203.626 C 240.400 203.975,239.959 204.675,239.421 205.181 C 238.882 205.686,238.328 206.618,238.189 207.250 C 238.050 207.882,237.615 208.624,237.222 208.900 C 236.829 209.175,236.370 210.030,236.202 210.800 C 236.034 211.570,235.470 212.709,234.948 213.331 C 234.427 213.953,234.000 214.699,234.000 214.989 C 234.000 215.279,233.553 215.940,233.007 216.458 C 232.461 216.976,232.011 217.705,232.007 218.077 C 232.003 218.450,231.660 218.993,231.244 219.284 C 230.828 219.575,230.252 220.602,229.963 221.565 C 229.647 222.620,229.152 223.392,228.719 223.505 C 227.714 223.768,227.102 223.069,237.200 233.191 C 249.252 245.273,249.300 245.704,238.598 245.928 C 230.663 246.093,230.163 245.885,224.343 240.000 C 219.624 235.229,218.957 234.979,216.761 237.165 C 214.295 239.620,210.843 241.938,208.813 242.501 C 208.050 242.713,207.230 243.153,206.991 243.480 C 206.752 243.807,205.711 244.232,204.678 244.425 C 203.646 244.618,202.295 245.150,201.677 245.607 C 199.244 247.405,180.020 247.453,177.604 245.666 C 177.002 245.221,175.810 244.737,174.955 244.591 C 174.100 244.445,172.929 243.995,172.354 243.591 C 171.779 243.186,170.651 242.581,169.848 242.246 C 169.046 241.911,168.282 241.358,168.152 241.018 C 168.021 240.678,167.570 240.400,167.149 240.400 C 166.720 240.400,166.182 239.960,165.927 239.400 C 165.677 238.850,165.226 238.400,164.926 238.400 C 164.626 238.400,164.213 237.961,164.009 237.424 C 163.805 236.888,163.270 236.251,162.819 236.010 C 162.369 235.769,162.000 235.213,162.000 234.773 C 162.000 234.334,161.723 233.869,161.385 233.739 C 160.675 233.466,159.600 231.555,159.600 230.564 C 159.600 230.192,159.325 229.687,158.989 229.441 C 157.068 228.036,157.260 208.400,159.195 208.400 C 159.369 208.400,159.626 207.788,159.766 207.040 C 159.906 206.292,160.300 205.449,160.640 205.167 C 160.980 204.885,161.609 203.966,162.037 203.127 C 162.466 202.287,162.997 201.600,163.218 201.600 C 163.439 201.600,163.798 201.133,164.015 200.561 C 164.232 199.990,164.751 199.433,165.168 199.324 C 165.585 199.215,166.015 198.785,166.124 198.368 C 166.233 197.951,166.790 197.432,167.361 197.215 C 167.933 196.998,168.400 196.639,168.400 196.418 C 168.400 196.197,169.087 195.666,169.927 195.237 C 170.766 194.809,171.689 194.175,171.976 193.829 C 172.263 193.483,172.882 193.200,173.350 193.200 C 173.819 193.200,174.721 192.651,175.355 191.979 L 176.507 190.759 175.637 189.949 C 175.159 189.503,174.660 188.600,174.528 187.942 C 174.397 187.284,173.885 186.481,173.392 186.158 C 172.898 185.834,172.381 185.003,172.242 184.311 C 172.104 183.619,171.704 182.736,171.354 182.349 C 169.703 180.525,169.764 170.262,171.443 167.329 C 171.969 166.410,172.400 165.370,172.400 165.019 C 172.400 164.668,172.850 164.209,173.400 164.000 C 173.950 163.791,174.401 163.300,174.403 162.910 C 174.408 161.889,178.103 158.090,179.410 157.762 C 180.018 157.609,180.840 157.160,181.236 156.764 C 181.631 156.369,182.640 155.933,183.478 155.797 C 185.009 155.548,185.756 155.256,187.600 154.190 C 188.878 153.451,200.381 153.348,201.718 154.063 M127.794 173.539 C 128.694 174.025,130.110 174.400,131.045 174.400 C 132.748 174.400,135.351 175.273,135.796 175.994 C 135.934 176.217,136.448 176.400,136.937 176.400 C 138.349 176.400,142.813 180.369,144.620 183.231 C 145.164 184.094,145.773 184.800,145.973 184.800 C 146.173 184.800,146.461 185.385,146.613 186.100 C 146.765 186.815,147.138 187.683,147.441 188.028 C 148.054 188.725,148.800 192.159,148.800 194.285 C 148.800 195.276,148.469 195.992,147.619 196.843 L 146.438 198.023 141.138 197.912 L 135.837 197.800 134.732 196.200 C 134.124 195.320,133.348 193.662,133.007 192.516 C 132.666 191.370,132.146 190.290,131.852 190.116 C 131.558 189.942,131.104 189.395,130.844 188.900 C 130.584 188.405,130.075 188.000,129.712 188.000 C 129.349 188.000,128.654 187.627,128.169 187.170 C 126.309 185.423,115.364 185.615,113.407 187.429 C 112.830 187.963,112.118 188.400,111.823 188.400 C 111.528 188.400,111.184 188.809,111.059 189.308 C 110.934 189.807,110.464 190.610,110.015 191.091 C 108.813 192.382,108.893 195.172,110.166 196.368 C 110.698 196.867,111.241 197.709,111.374 198.238 C 111.507 198.767,111.857 199.200,112.152 199.200 C 112.447 199.200,113.350 199.649,114.158 200.198 C 114.967 200.746,116.387 201.307,117.314 201.444 C 118.241 201.581,119.574 202.019,120.275 202.418 C 120.976 202.817,122.416 203.269,123.475 203.423 C 125.503 203.717,126.632 204.175,127.520 205.063 C 127.816 205.358,128.647 205.600,129.369 205.600 C 130.873 205.600,133.121 206.283,134.000 207.008 C 134.330 207.280,135.468 207.627,136.529 207.780 C 137.590 207.933,138.787 208.387,139.189 208.789 C 139.592 209.192,140.304 209.642,140.771 209.791 C 141.239 209.939,141.907 210.497,142.257 211.030 C 142.606 211.564,143.146 212.000,143.456 212.000 C 143.766 212.000,144.191 212.450,144.400 213.000 C 144.609 213.550,145.070 214.000,145.425 214.000 C 145.779 214.000,146.273 214.540,146.522 215.200 C 146.772 215.860,147.110 216.400,147.274 216.400 C 149.313 216.400,149.603 231.377,147.616 234.064 C 147.167 234.671,146.800 235.330,146.800 235.528 C 146.800 236.483,141.287 241.939,140.000 242.258 C 139.450 242.394,138.640 242.829,138.200 243.224 C 137.760 243.619,136.500 244.167,135.400 244.440 C 134.300 244.713,132.890 245.311,132.266 245.768 C 130.505 247.060,115.067 247.044,113.316 245.749 C 112.683 245.281,111.363 244.765,110.383 244.602 C 109.402 244.438,107.864 243.876,106.965 243.352 C 106.066 242.829,105.026 242.400,104.655 242.400 C 104.012 242.400,97.200 236.009,97.200 235.405 C 97.200 235.246,96.750 234.581,96.200 233.927 C 95.650 233.273,95.200 232.383,95.200 231.947 C 95.200 231.512,94.810 230.311,94.334 229.278 C 91.780 223.740,93.058 222.400,100.895 222.400 C 107.808 222.400,108.499 222.717,109.011 226.132 C 109.206 227.434,109.562 228.145,110.243 228.591 C 110.769 228.936,111.200 229.481,111.200 229.802 C 111.200 230.122,111.644 230.496,112.186 230.632 C 112.728 230.768,113.274 231.204,113.400 231.601 C 113.943 233.311,128.239 233.775,130.722 232.163 C 134.923 229.435,136.209 224.832,133.600 221.861 C 132.940 221.109,132.400 220.293,132.400 220.047 C 132.400 219.801,131.904 219.600,131.297 219.600 C 130.690 219.600,129.385 219.174,128.397 218.654 C 127.409 218.134,125.278 217.517,123.661 217.281 C 122.045 217.046,120.405 216.566,120.016 216.215 C 119.628 215.863,118.357 215.462,117.192 215.324 C 116.019 215.186,114.768 214.768,114.389 214.389 C 114.012 214.012,112.594 213.508,111.237 213.269 C 109.880 213.030,108.329 212.487,107.789 212.063 C 107.249 211.638,106.178 211.172,105.408 211.028 C 104.639 210.884,103.828 210.426,103.605 210.010 C 103.383 209.594,102.850 209.143,102.421 209.007 C 101.992 208.870,101.536 208.428,101.407 208.023 C 101.279 207.618,100.806 207.190,100.357 207.073 C 99.908 206.955,99.449 206.508,99.336 206.078 C 99.224 205.649,98.697 205.099,98.166 204.857 C 97.601 204.600,97.200 204.076,97.200 203.596 C 97.200 203.144,96.932 202.672,96.604 202.546 C 94.449 201.719,94.462 186.276,96.619 185.448 C 96.939 185.325,97.200 184.864,97.200 184.422 C 97.200 183.980,97.631 183.336,98.158 182.991 C 98.685 182.645,99.212 181.998,99.329 181.552 C 99.445 181.106,99.908 180.645,100.357 180.527 C 100.806 180.410,101.279 179.982,101.407 179.577 C 101.536 179.172,101.992 178.730,102.421 178.593 C 102.850 178.457,103.383 178.006,103.605 177.590 C 103.828 177.174,104.639 176.716,105.408 176.572 C 106.178 176.428,107.261 175.952,107.816 175.516 C 108.477 174.996,109.686 174.650,111.313 174.515 C 112.681 174.401,114.250 174.024,114.800 173.677 C 117.241 172.135,125.041 172.053,127.794 173.539 M285.250 173.487 C 286.051 173.970,287.628 174.388,289.130 174.515 C 290.521 174.633,291.961 174.997,292.330 175.325 C 292.698 175.653,293.693 176.109,294.540 176.339 C 295.510 176.603,296.717 177.432,297.800 178.579 C 298.747 179.580,299.712 180.400,299.946 180.400 C 300.180 180.400,300.587 180.805,300.849 181.300 C 301.112 181.795,301.658 182.435,302.063 182.723 C 302.469 183.010,302.800 183.434,302.800 183.665 C 302.800 183.896,303.233 184.599,303.762 185.228 C 304.292 185.857,304.847 187.143,304.996 188.086 C 305.145 189.029,305.522 190.688,305.834 191.773 C 307.259 196.737,305.865 198.007,299.011 197.984 C 293.226 197.964,291.885 197.257,291.258 193.897 C 291.068 192.880,290.437 191.484,289.856 190.794 C 289.275 190.103,288.800 189.282,288.800 188.969 C 288.800 188.656,288.502 188.400,288.138 188.400 C 287.774 188.400,286.829 187.905,286.038 187.300 C 283.986 185.730,273.124 185.581,271.506 187.100 C 270.980 187.595,270.375 188.000,270.163 188.000 C 267.765 188.000,266.087 196.666,268.347 197.383 C 268.710 197.498,269.186 197.998,269.404 198.494 C 269.622 198.990,270.160 199.459,270.600 199.538 C 271.040 199.616,271.769 200.020,272.221 200.435 C 272.672 200.851,273.932 201.360,275.021 201.568 C 276.109 201.775,277.810 202.314,278.800 202.764 C 279.790 203.214,281.161 203.586,281.846 203.591 C 282.531 203.596,283.561 203.969,284.135 204.420 C 284.722 204.882,286.277 205.413,287.689 205.635 C 289.070 205.852,290.651 206.355,291.203 206.754 C 291.754 207.153,293.072 207.610,294.131 207.769 C 295.253 207.937,296.333 208.380,296.717 208.829 C 297.081 209.253,297.568 209.600,297.800 209.600 C 299.027 209.600,304.658 215.245,305.005 216.822 C 305.159 217.524,305.663 218.739,306.124 219.521 C 307.359 221.614,307.373 229.828,306.144 231.492 C 305.694 232.101,305.205 233.245,305.057 234.033 C 304.910 234.821,304.386 235.843,303.895 236.306 C 303.403 236.768,302.550 237.722,302.000 238.426 C 301.450 239.130,300.820 239.857,300.600 240.042 C 300.380 240.226,299.679 240.832,299.042 241.389 C 298.404 241.945,297.681 242.400,297.434 242.400 C 297.188 242.400,296.358 242.827,295.590 243.348 C 294.822 243.870,293.411 244.429,292.455 244.591 C 291.498 244.752,290.390 245.210,289.993 245.607 C 288.415 247.185,273.023 247.299,270.905 245.749 C 270.297 245.304,268.731 244.728,267.424 244.468 C 266.117 244.208,264.677 243.661,264.224 243.251 C 263.771 242.841,262.900 242.387,262.290 242.242 C 261.679 242.098,260.838 241.638,260.420 241.220 C 260.002 240.802,259.287 240.261,258.830 240.016 C 258.374 239.772,258.000 239.398,258.000 239.186 C 258.000 238.974,257.028 237.805,255.840 236.589 C 254.653 235.372,253.562 233.901,253.416 233.320 C 253.270 232.739,252.816 231.839,252.408 231.320 C 251.305 229.917,250.883 224.744,251.762 223.401 C 252.426 222.388,263.359 221.796,264.601 222.706 C 265.419 223.305,267.133 226.241,267.390 227.483 C 267.553 228.270,268.225 229.234,269.128 229.976 C 269.938 230.642,270.910 231.455,271.290 231.783 C 273.589 233.772,287.685 233.599,289.111 231.563 C 289.405 231.144,289.915 230.800,290.243 230.800 C 290.572 230.800,291.030 230.260,291.260 229.600 C 291.490 228.940,291.931 228.400,292.239 228.400 C 292.792 228.400,292.977 227.195,292.811 224.684 C 292.708 223.143,289.553 219.771,287.904 219.441 C 287.210 219.302,286.182 218.878,285.621 218.500 C 285.059 218.121,283.197 217.604,281.482 217.352 C 279.766 217.098,278.045 216.603,277.653 216.248 C 277.262 215.894,276.055 215.495,274.971 215.362 C 273.887 215.228,272.531 214.791,271.958 214.390 C 271.385 213.990,269.870 213.469,268.591 213.232 C 267.312 212.996,265.957 212.523,265.580 212.182 C 265.203 211.841,264.288 211.392,263.547 211.186 C 262.806 210.979,261.683 210.363,261.051 209.816 C 260.419 209.270,259.593 208.725,259.215 208.605 C 258.837 208.485,258.289 207.940,257.996 207.393 C 257.704 206.847,257.330 206.400,257.165 206.400 C 257.000 206.400,256.454 205.725,255.951 204.900 C 255.448 204.075,254.737 203.182,254.372 202.915 C 254.006 202.648,253.588 201.684,253.442 200.773 C 253.296 199.862,252.912 198.604,252.589 197.978 C 251.815 196.481,251.788 190.882,252.550 189.789 C 252.852 189.355,253.224 188.257,253.377 187.349 C 253.544 186.349,254.038 185.363,254.627 184.851 C 255.162 184.386,255.601 183.779,255.603 183.503 C 255.610 182.335,261.466 176.971,263.200 176.543 C 263.750 176.408,264.789 175.943,265.510 175.510 C 266.230 175.077,268.099 174.562,269.664 174.366 C 271.228 174.169,272.755 173.804,273.056 173.553 C 274.743 172.153,282.964 172.109,285.250 173.487 M184.654 202.202 C 184.024 202.531,183.197 202.800,182.816 202.800 C 182.436 202.800,181.800 203.158,181.405 203.595 C 181.009 204.032,180.081 204.608,179.343 204.875 C 178.604 205.142,178.000 205.590,178.000 205.870 C 178.000 206.150,177.460 206.659,176.800 207.000 C 176.140 207.341,175.600 207.858,175.600 208.148 C 175.600 208.439,175.251 208.992,174.825 209.378 C 174.398 209.764,173.851 211.004,173.609 212.134 C 173.366 213.265,172.914 214.577,172.604 215.051 C 171.544 216.668,171.412 219.755,172.321 221.674 C 172.771 222.623,173.322 224.088,173.545 224.929 C 174.075 226.921,176.466 229.813,178.398 230.799 C 179.238 231.228,179.988 231.765,180.064 231.992 C 180.819 234.257,197.572 233.971,200.808 231.639 C 201.362 231.239,202.225 230.782,202.726 230.624 C 203.227 230.465,204.033 229.987,204.518 229.563 C 205.003 229.138,206.210 228.084,207.200 227.221 L 209.000 225.650 208.218 224.190 C 207.788 223.386,207.051 222.426,206.581 222.057 C 206.111 221.687,205.512 220.983,205.249 220.492 C 204.987 220.002,204.584 219.600,204.355 219.600 C 203.964 219.600,203.211 218.872,199.544 214.955 C 198.743 214.100,197.393 212.748,196.544 211.951 C 195.695 211.153,194.263 209.713,193.362 208.751 C 191.454 206.710,186.146 201.599,185.941 201.602 C 185.863 201.604,185.284 201.874,184.654 202.202 M51.200 337.049 C 51.200 337.580,51.091 337.608,50.600 337.200 C 50.270 336.926,50.000 336.634,50.000 336.551 C 50.000 336.468,50.270 336.400,50.600 336.400 C 50.930 336.400,51.200 336.692,51.200 337.049 M63.745 349.400 C 63.871 349.730,63.823 350.000,63.636 350.000 C 63.450 350.000,63.074 349.730,62.800 349.400 C 62.395 348.912,62.415 348.800,62.908 348.800 C 63.242 348.800,63.618 349.070,63.745 349.400 " stroke="none" fill="#54acfc" fill-rule="evenodd"></path><path id="path2" d="M188.149 155.781 C 186.141 156.272,183.870 157.063,183.102 157.537 C 182.334 158.012,181.457 158.403,181.153 158.406 C 180.242 158.415,176.095 162.320,174.643 164.534 C 172.042 168.503,171.144 173.710,172.181 178.823 C 173.051 183.118,173.359 183.792,176.897 189.122 C 178.265 191.183,177.860 192.447,175.433 193.685 C 174.549 194.136,173.369 194.813,172.812 195.189 C 172.256 195.565,170.820 196.530,169.622 197.334 C 165.323 200.219,161.269 205.996,159.812 211.310 C 157.099 221.209,159.695 231.560,166.458 237.810 C 175.849 246.489,192.764 248.522,205.600 242.515 C 210.486 240.228,211.928 239.363,214.800 236.994 C 217.550 234.725,219.198 233.600,219.769 233.600 C 219.892 233.600,222.342 235.940,225.215 238.800 L 230.439 244.000 236.888 244.000 C 246.488 244.000,246.547 244.617,235.947 234.064 C 226.503 224.661,226.210 224.220,227.920 221.954 C 228.315 221.429,229.428 219.650,230.393 218.000 C 231.357 216.350,232.366 214.730,232.635 214.400 C 232.904 214.070,233.875 212.360,234.793 210.600 C 235.711 208.840,236.981 206.590,237.616 205.600 C 242.049 198.689,241.928 198.400,234.609 198.400 L 229.683 198.400 228.541 199.741 C 227.914 200.478,227.040 201.688,226.600 202.430 C 226.160 203.171,225.440 204.357,225.000 205.065 C 224.560 205.773,223.265 208.031,222.122 210.084 C 220.980 212.137,219.511 214.211,218.858 214.694 L 217.672 215.571 207.736 205.621 C 185.388 183.241,184.192 181.742,183.703 175.489 C 182.763 163.474,202.666 160.553,204.248 172.474 C 204.639 175.426,204.960 175.600,210.003 175.600 C 215.889 175.600,216.400 175.377,216.400 172.802 C 216.400 160.657,202.485 152.273,188.149 155.781 M200.084 156.566 C 202.810 156.952,204.286 157.367,205.038 157.958 C 205.626 158.421,206.366 158.800,206.682 158.800 C 209.308 158.800,213.682 164.812,214.704 169.827 C 215.715 174.786,215.701 174.802,210.624 174.795 C 205.479 174.787,205.347 174.728,205.024 172.296 C 204.730 170.079,204.185 168.778,203.342 168.280 C 203.044 168.104,202.800 167.730,202.800 167.447 C 202.800 167.165,201.855 166.319,200.700 165.567 C 196.012 162.515,187.478 163.996,184.700 168.343 C 184.205 169.117,183.567 170.122,183.283 170.575 C 182.269 172.192,182.821 179.210,184.108 181.067 C 184.709 181.934,185.200 182.788,185.200 182.965 C 185.200 183.729,190.443 189.488,199.100 198.234 C 204.215 203.401,208.400 207.802,208.400 208.014 C 208.400 208.226,208.550 208.400,208.733 208.400 C 208.916 208.400,210.996 210.291,213.355 212.602 C 216.925 216.099,217.766 216.739,218.368 216.417 C 219.373 215.879,221.600 213.283,221.600 212.648 C 221.600 212.360,221.960 211.798,222.400 211.400 C 222.840 211.002,223.200 210.459,223.200 210.194 C 223.200 209.929,223.648 209.052,224.195 208.245 C 224.742 207.439,225.305 206.319,225.446 205.757 C 225.588 205.195,225.956 204.638,226.266 204.519 C 226.576 204.400,227.113 203.740,227.460 203.052 C 227.806 202.363,228.645 201.215,229.323 200.500 L 230.557 199.200 234.671 199.200 C 239.572 199.200,240.239 199.858,238.246 202.733 C 237.671 203.564,237.200 204.434,237.200 204.668 C 237.200 204.901,236.801 205.599,236.313 206.219 C 235.315 207.488,234.449 208.964,233.157 211.600 C 232.672 212.590,231.971 213.850,231.600 214.400 C 231.229 214.950,230.474 216.120,229.923 217.000 C 229.371 217.880,228.353 219.486,227.660 220.569 C 225.103 224.564,225.137 224.627,235.167 234.659 C 239.585 239.077,243.200 242.806,243.200 242.946 C 243.200 243.086,240.407 243.200,236.992 243.200 L 230.785 243.200 225.675 238.000 C 219.894 232.117,218.753 231.673,216.400 234.385 C 215.313 235.638,210.769 239.200,210.257 239.200 C 209.981 239.200,209.158 239.641,208.428 240.179 C 207.699 240.718,206.546 241.280,205.866 241.429 C 205.187 241.578,204.174 242.022,203.616 242.414 C 203.057 242.807,201.758 243.244,200.729 243.384 C 199.699 243.525,197.859 243.991,196.639 244.420 C 193.517 245.517,185.938 245.521,182.342 244.426 C 180.944 244.001,179.080 243.534,178.200 243.389 C 177.320 243.244,176.147 242.807,175.592 242.419 C 175.038 242.030,174.138 241.576,173.592 241.408 C 167.888 239.660,161.739 232.172,160.636 225.630 C 158.199 211.182,163.680 200.071,176.074 194.331 C 179.676 192.663,179.830 191.047,176.736 187.400 C 171.823 181.610,171.875 165.836,176.816 163.191 C 177.218 162.977,177.660 162.441,177.800 162.000 C 177.940 161.560,178.287 161.200,178.572 161.200 C 178.858 161.200,179.520 160.779,180.045 160.264 C 180.570 159.749,181.618 159.117,182.374 158.859 C 183.130 158.601,184.067 158.102,184.456 157.749 C 185.981 156.369,194.268 155.742,200.084 156.566 M114.800 174.984 C 98.257 177.401,90.326 194.598,100.739 205.473 C 103.354 208.203,103.822 208.495,110.600 211.612 C 112.646 212.552,115.557 213.517,118.600 214.262 C 133.854 217.996,137.228 220.728,135.824 228.210 C 134.036 237.741,111.427 237.316,108.230 227.691 C 106.988 223.951,106.265 223.558,100.877 223.688 C 95.154 223.825,94.863 224.096,95.790 228.417 C 96.911 233.644,101.175 239.038,105.883 241.187 C 106.938 241.668,108.318 242.342,108.952 242.684 C 109.962 243.230,112.108 243.889,117.200 245.216 C 119.842 245.905,127.371 245.675,129.898 244.829 C 131.164 244.406,132.777 243.943,133.481 243.802 C 134.186 243.660,135.176 243.223,135.681 242.831 C 136.187 242.438,137.318 241.882,138.195 241.596 C 145.904 239.080,150.352 225.794,146.218 217.636 C 144.396 214.041,136.810 208.400,133.796 208.400 C 133.341 208.400,132.256 208.035,131.385 207.588 C 130.513 207.142,128.810 206.521,127.600 206.210 C 125.446 205.655,123.446 205.034,117.000 202.917 C 115.240 202.339,113.291 201.446,112.669 200.933 C 112.047 200.420,111.388 200.000,111.204 200.000 C 109.900 200.000,108.400 196.567,108.400 193.581 C 108.400 181.026,132.686 181.288,135.379 193.872 C 136.138 197.418,147.200 197.487,147.200 193.946 C 147.200 191.866,145.585 186.699,144.551 185.469 C 144.028 184.847,143.600 184.214,143.600 184.062 C 143.600 183.529,140.056 180.095,138.246 178.873 C 132.597 175.061,124.018 173.638,114.800 174.984 M272.400 174.992 C 270.530 175.270,268.460 175.776,267.800 176.116 C 267.140 176.456,265.394 177.312,263.919 178.017 C 260.263 179.767,257.050 182.996,254.819 187.164 C 251.073 194.164,255.457 205.424,263.454 209.341 C 268.918 212.017,269.757 212.376,271.600 212.833 C 272.590 213.078,273.595 213.438,273.834 213.633 C 274.072 213.828,275.602 214.259,277.234 214.590 C 292.468 217.679,297.782 223.674,291.779 230.999 C 289.416 233.883,286.724 234.919,281.071 235.119 C 272.954 235.406,268.336 232.965,265.261 226.764 L 263.791 223.800 259.093 223.687 C 253.369 223.550,252.800 223.775,252.800 226.178 C 252.800 231.037,258.313 238.823,263.400 241.148 C 264.500 241.650,265.918 242.342,266.552 242.684 C 267.562 243.230,269.708 243.889,274.800 245.216 C 277.496 245.919,284.855 245.676,287.400 244.800 C 288.679 244.360,289.992 244.000,290.317 244.000 C 291.638 244.000,297.727 240.625,299.762 238.765 C 310.335 229.102,305.431 211.544,291.272 208.371 C 290.307 208.155,288.956 207.687,288.268 207.332 C 287.581 206.977,286.114 206.451,285.009 206.164 C 283.028 205.650,280.889 204.982,274.600 202.917 C 260.045 198.136,264.188 183.447,279.789 184.519 C 286.400 184.973,290.105 187.319,292.233 192.400 C 293.837 196.230,294.123 196.400,298.982 196.400 C 304.475 196.400,305.225 195.459,303.991 190.115 C 301.383 178.813,288.429 172.613,272.400 174.992 M131.318 176.547 C 132.243 177.074,133.490 177.619,134.090 177.758 C 135.950 178.189,141.070 181.761,141.424 182.875 C 141.550 183.274,142.002 183.787,142.427 184.014 C 142.852 184.242,143.200 184.594,143.200 184.796 C 143.200 184.999,143.631 185.800,144.158 186.576 C 145.217 188.137,146.163 192.612,145.767 194.190 C 145.515 195.192,145.480 195.200,141.171 195.200 C 136.467 195.200,136.000 194.976,136.000 192.721 C 136.000 190.626,130.424 184.800,128.419 184.800 C 128.066 184.800,127.333 184.485,126.789 184.100 C 125.406 183.121,116.670 183.074,115.183 184.037 C 114.642 184.387,113.700 184.796,113.090 184.947 C 111.614 185.310,108.812 187.880,108.139 189.487 C 106.516 193.363,108.437 200.800,111.061 200.800 C 111.342 200.800,111.763 201.158,111.997 201.595 C 112.232 202.033,112.908 202.512,113.500 202.661 C 114.092 202.809,115.122 203.249,115.788 203.637 C 116.455 204.025,118.150 204.548,119.557 204.799 C 120.963 205.050,122.493 205.500,122.957 205.799 C 123.420 206.098,124.970 206.550,126.400 206.804 C 127.830 207.058,129.277 207.515,129.616 207.819 C 129.955 208.124,131.215 208.579,132.416 208.831 C 133.617 209.084,134.870 209.519,135.200 209.798 C 135.530 210.077,136.250 210.435,136.800 210.593 C 146.613 213.412,150.314 228.431,143.170 236.446 C 141.234 238.619,137.052 241.600,135.940 241.600 C 135.555 241.600,135.096 241.857,134.920 242.171 C 133.436 244.822,113.841 245.090,110.722 242.501 C 110.397 242.232,109.423 241.761,108.557 241.455 C 106.344 240.674,102.798 238.301,101.097 236.462 C 100.824 236.167,100.229 235.537,99.776 235.062 C 99.322 234.588,98.708 233.570,98.410 232.800 C 98.112 232.030,97.600 231.085,97.273 230.701 C 96.895 230.258,96.663 229.086,96.639 227.501 L 96.600 225.000 101.053 224.887 L 105.506 224.775 106.444 226.287 C 106.960 227.119,107.598 228.373,107.861 229.074 C 108.414 230.544,111.070 233.088,113.093 234.085 C 113.857 234.462,114.762 235.002,115.103 235.285 C 116.333 236.306,129.280 235.987,130.750 234.900 C 131.420 234.405,132.149 234.000,132.370 234.000 C 135.332 234.000,138.289 225.777,136.536 222.418 C 136.244 221.858,136.004 221.191,136.002 220.936 C 135.999 220.338,133.705 218.400,133.000 218.400 C 132.704 218.400,131.953 217.973,131.331 217.452 C 130.709 216.930,129.577 216.368,128.816 216.202 C 128.055 216.035,126.795 215.570,126.016 215.168 C 125.237 214.766,123.230 214.269,121.556 214.064 C 119.881 213.859,118.081 213.415,117.556 213.077 C 117.030 212.739,115.743 212.338,114.695 212.185 C 113.648 212.033,112.367 211.574,111.848 211.167 C 111.330 210.759,110.072 210.202,109.053 209.930 C 108.034 209.657,107.200 209.300,107.200 209.136 C 107.200 208.972,106.435 208.499,105.500 208.084 C 94.659 203.282,94.596 185.220,105.400 179.535 C 106.280 179.071,107.090 178.555,107.200 178.388 C 107.310 178.220,108.210 177.867,109.200 177.604 C 110.190 177.341,111.314 176.845,111.699 176.502 C 113.525 174.872,128.440 174.906,131.318 176.547 M288.552 176.351 C 289.238 176.765,290.520 177.328,291.400 177.602 C 292.280 177.877,293.270 178.327,293.600 178.602 C 293.930 178.878,294.782 179.398,295.494 179.759 C 299.334 181.704,303.553 188.764,303.586 193.300 L 303.600 195.200 299.100 195.185 L 294.600 195.170 292.800 191.504 C 291.031 187.901,287.928 184.803,286.086 184.801 C 285.803 184.800,285.091 184.485,284.503 184.100 C 283.634 183.531,282.530 183.400,278.617 183.400 C 274.673 183.400,273.621 183.527,272.811 184.100 C 272.267 184.485,271.519 184.800,271.149 184.800 C 270.779 184.800,269.722 185.430,268.800 186.200 C 267.878 186.970,266.979 187.600,266.801 187.600 C 266.624 187.600,266.275 188.095,266.027 188.700 C 265.778 189.305,265.313 190.250,264.993 190.800 C 263.069 194.108,267.036 201.695,271.199 202.669 C 271.749 202.797,272.740 203.227,273.400 203.622 C 274.060 204.018,275.860 204.556,277.400 204.819 C 278.940 205.081,280.470 205.529,280.800 205.815 C 281.130 206.100,282.570 206.544,284.000 206.800 C 285.430 207.056,286.873 207.511,287.206 207.810 C 287.540 208.110,288.710 208.555,289.806 208.800 C 290.903 209.044,292.160 209.477,292.600 209.762 C 293.040 210.046,294.120 210.513,295.000 210.798 C 295.880 211.084,296.991 211.697,297.469 212.159 C 297.947 212.622,298.891 213.418,299.567 213.928 C 308.109 220.385,304.695 237.805,294.200 241.312 C 293.540 241.533,292.693 241.978,292.318 242.302 C 288.958 245.204,273.960 245.118,267.794 242.162 C 266.691 241.633,265.634 241.200,265.446 241.200 C 264.299 241.200,256.800 235.140,256.800 234.214 C 256.800 234.050,256.368 233.402,255.839 232.774 C 255.211 232.027,254.705 230.661,254.378 228.831 C 253.698 225.025,253.911 224.800,258.199 224.800 C 263.184 224.800,263.865 225.013,264.132 226.656 C 264.327 227.859,265.507 229.756,266.835 231.000 C 267.069 231.220,267.743 231.884,268.331 232.476 C 268.919 233.068,270.613 234.119,272.096 234.812 L 274.793 236.072 280.896 235.933 C 290.702 235.709,295.640 231.402,294.579 224.000 C 294.101 220.665,290.282 217.012,286.416 216.193 C 285.655 216.032,284.376 215.558,283.575 215.140 C 282.774 214.723,280.877 214.272,279.359 214.139 C 277.833 214.006,276.064 213.579,275.400 213.184 C 274.740 212.791,273.343 212.344,272.295 212.189 C 271.248 212.034,269.988 211.593,269.495 211.209 C 269.003 210.825,268.150 210.374,267.600 210.207 C 265.085 209.445,261.355 207.320,259.921 205.833 C 257.427 203.247,257.143 202.908,256.555 201.823 C 256.250 201.261,255.731 200.305,255.402 199.700 C 253.552 196.294,255.026 187.156,257.954 183.877 C 259.945 181.647,261.589 180.259,263.100 179.531 C 264.035 179.081,264.800 178.573,264.800 178.403 C 264.800 178.234,265.655 177.880,266.700 177.617 C 267.745 177.355,268.918 176.853,269.307 176.501 C 270.945 175.023,286.151 174.904,288.552 176.351 M182.347 200.356 C 181.819 200.771,180.694 201.401,179.847 201.755 C 176.777 203.037,171.152 209.693,170.406 212.926 C 168.191 222.520,171.587 230.129,180.135 234.726 L 182.600 236.052 190.400 235.926 C 197.675 235.808,198.297 235.739,199.647 234.900 C 200.443 234.405,201.300 234.000,201.552 234.000 C 201.803 234.000,203.100 233.235,204.434 232.300 C 205.767 231.365,207.261 230.330,207.754 230.000 C 212.343 226.927,212.427 224.590,208.101 220.400 C 206.396 218.750,204.396 216.680,203.655 215.800 C 202.914 214.920,202.088 214.110,201.820 214.000 C 201.552 213.890,200.357 212.740,199.166 211.445 C 197.975 210.150,196.661 208.800,196.246 208.445 C 195.594 207.888,193.574 205.848,191.493 203.647 C 187.493 199.416,184.783 198.440,182.347 200.356 M198.438 211.939 C 212.346 225.821,211.873 225.015,208.100 228.400 C 206.835 229.535,205.260 230.740,204.600 231.079 C 203.940 231.417,203.040 232.010,202.600 232.396 C 199.036 235.526,186.827 236.488,181.187 234.083 C 170.134 229.369,167.174 216.139,175.107 206.913 C 177.246 204.424,182.892 200.731,185.227 200.292 C 185.762 200.191,186.262 200.084,186.338 200.054 C 186.415 200.025,191.860 205.373,198.438 211.939 " stroke="none" fill="#bbddfc" fill-rule="evenodd"></path><path id="path3" d="M336.400 50.600 C 336.400 50.930,336.692 51.200,337.049 51.200 C 337.580 51.200,337.608 51.091,337.200 50.600 C 336.926 50.270,336.634 50.000,336.551 50.000 C 336.468 50.000,336.400 50.270,336.400 50.600 M348.800 63.000 C 348.800 63.330,349.092 63.600,349.449 63.600 C 349.980 63.600,350.008 63.491,349.600 63.000 C 349.326 62.670,349.034 62.400,348.951 62.400 C 348.868 62.400,348.800 62.670,348.800 63.000 M190.749 154.381 C 189.730 154.567,188.560 154.892,188.149 155.102 C 187.737 155.313,186.500 155.704,185.400 155.972 C 184.300 156.241,183.130 156.694,182.800 156.981 C 182.470 157.267,181.505 157.747,180.657 158.047 C 179.068 158.608,174.800 162.544,174.800 163.447 C 174.800 163.726,174.448 164.201,174.019 164.502 C 170.270 167.127,170.273 182.427,174.022 185.820 C 174.450 186.207,174.800 186.667,174.800 186.842 C 174.800 187.017,175.343 187.964,176.006 188.947 C 177.568 191.261,177.167 192.375,174.351 193.545 C 173.278 193.991,172.400 194.546,172.400 194.778 C 172.400 195.010,172.159 195.200,171.864 195.200 C 170.147 195.200,162.000 203.264,162.000 204.963 C 162.000 205.175,161.657 205.720,161.238 206.174 C 158.450 209.195,157.037 223.506,159.136 227.460 C 159.352 227.867,159.830 229.055,160.198 230.100 C 160.565 231.145,161.002 232.000,161.169 232.000 C 161.335 232.000,161.683 232.463,161.941 233.030 C 163.249 235.900,168.495 241.091,170.800 241.796 C 171.350 241.965,172.520 242.511,173.400 243.012 C 174.280 243.512,175.623 244.052,176.384 244.211 C 177.145 244.370,178.495 244.883,179.384 245.350 C 181.834 246.638,197.345 246.643,199.800 245.357 C 200.680 244.895,202.300 244.298,203.400 244.029 C 204.500 243.760,205.670 243.306,206.000 243.021 C 206.330 242.735,207.320 242.270,208.200 241.987 C 210.025 241.401,211.057 240.724,215.033 237.500 C 216.593 236.235,218.057 235.200,218.286 235.200 C 218.515 235.200,218.911 234.948,219.166 234.640 C 219.546 234.183,220.547 234.995,224.652 239.091 C 230.438 244.865,230.243 244.777,237.400 244.788 C 247.546 244.804,247.545 244.800,236.585 233.754 C 231.643 228.774,227.600 224.518,227.600 224.297 C 227.600 224.075,228.004 223.243,228.497 222.447 C 229.459 220.895,230.052 219.866,231.554 217.134 C 232.078 216.180,232.639 215.310,232.800 215.200 C 233.079 215.009,234.402 212.698,235.521 210.448 C 235.807 209.871,236.217 209.130,236.431 208.800 C 236.645 208.470,237.173 207.459,237.605 206.553 C 238.037 205.647,238.683 204.663,239.040 204.367 C 240.141 203.453,241.750 199.527,241.310 198.830 C 239.664 196.220,228.354 197.395,227.076 200.308 C 226.433 201.773,224.402 205.238,223.699 206.068 C 223.069 206.812,222.178 208.324,220.438 211.600 C 218.268 215.685,219.357 216.382,204.561 201.444 C 197.322 194.136,190.590 187.207,189.600 186.046 C 188.610 184.885,187.479 183.584,187.087 183.154 C 183.710 179.457,183.693 170.957,187.057 167.932 C 189.050 166.139,196.144 164.781,197.420 165.947 C 197.629 166.138,198.615 166.597,199.610 166.967 C 201.745 167.761,203.346 170.181,203.812 173.323 C 204.241 176.210,204.909 176.497,210.818 176.334 C 216.925 176.165,217.451 175.769,217.029 171.649 C 216.486 166.353,211.093 158.000,208.216 158.000 C 207.937 158.000,207.279 157.676,206.754 157.279 C 203.879 155.108,195.280 153.551,190.749 154.381 M201.000 155.749 C 208.877 157.790,213.108 161.362,215.392 167.900 C 217.716 174.553,216.984 175.600,210.003 175.600 C 204.960 175.600,204.639 175.426,204.248 172.474 C 202.666 160.553,182.763 163.474,183.703 175.489 C 184.192 181.742,185.388 183.241,207.736 205.621 L 217.672 215.571 218.858 214.694 C 219.511 214.211,220.980 212.137,222.122 210.084 C 223.265 208.031,224.560 205.773,225.000 205.065 C 225.440 204.357,226.160 203.171,226.600 202.430 C 227.040 201.688,227.914 200.478,228.541 199.741 L 229.683 198.400 234.609 198.400 C 241.928 198.400,242.049 198.689,237.616 205.600 C 236.981 206.590,235.711 208.840,234.793 210.600 C 233.875 212.360,232.904 214.070,232.635 214.400 C 232.366 214.730,231.357 216.350,230.393 218.000 C 229.428 219.650,228.315 221.429,227.920 221.954 C 226.210 224.220,226.503 224.661,235.947 234.064 C 246.547 244.617,246.488 244.000,236.888 244.000 L 230.439 244.000 225.215 238.800 C 222.342 235.940,219.892 233.600,219.769 233.600 C 219.198 233.600,217.550 234.725,214.800 236.994 C 211.928 239.363,210.486 240.228,205.600 242.515 C 192.764 248.522,175.849 246.489,166.458 237.810 C 159.695 231.560,157.099 221.209,159.812 211.310 C 161.269 205.996,165.323 200.219,169.622 197.334 C 170.820 196.530,172.256 195.565,172.812 195.189 C 173.369 194.813,174.549 194.136,175.433 193.685 C 177.860 192.447,178.265 191.183,176.897 189.122 C 173.359 183.792,173.051 183.118,172.181 178.823 C 171.144 173.710,172.042 168.503,174.643 164.534 C 176.095 162.320,180.242 158.415,181.153 158.406 C 181.457 158.403,182.334 158.012,183.102 157.537 C 187.085 155.075,195.251 154.259,201.000 155.749 M118.375 173.758 C 118.258 173.875,116.461 174.244,114.382 174.579 C 112.302 174.914,110.060 175.447,109.400 175.763 C 108.740 176.080,107.166 176.815,105.903 177.397 C 92.305 183.665,92.284 203.886,105.869 210.193 C 110.605 212.392,111.430 212.728,112.800 213.015 C 113.570 213.176,114.920 213.630,115.800 214.025 C 116.680 214.420,118.570 215.034,120.000 215.389 C 127.396 217.228,129.064 217.734,130.049 218.435 C 130.640 218.856,131.399 219.200,131.737 219.200 C 134.142 219.200,136.182 224.352,135.209 227.966 C 133.427 234.584,118.531 237.159,112.413 231.906 C 110.098 229.919,108.810 228.259,108.564 226.946 C 108.420 226.180,107.718 224.934,107.004 224.177 L 105.706 222.800 101.272 222.800 C 96.317 222.800,94.970 223.197,94.675 224.742 C 94.426 226.042,95.862 231.974,96.633 232.831 C 96.945 233.179,97.200 233.695,97.200 233.978 C 97.200 235.084,104.159 241.401,105.977 241.946 C 106.940 242.234,108.194 242.798,108.764 243.198 C 109.334 243.598,110.467 244.039,111.283 244.178 C 112.098 244.316,113.624 244.810,114.674 245.274 C 117.484 246.517,127.686 246.540,130.454 245.310 C 131.473 244.857,133.047 244.361,133.952 244.208 C 134.856 244.055,135.694 243.772,135.813 243.578 C 135.933 243.384,137.189 242.674,138.603 241.998 C 148.665 237.196,151.944 221.198,144.325 214.079 C 143.376 213.193,142.107 212.013,141.505 211.457 C 140.008 210.076,136.666 208.449,134.276 207.936 C 133.186 207.702,131.734 207.192,131.048 206.802 C 130.361 206.412,129.022 205.978,128.072 205.837 C 127.121 205.697,125.910 205.297,125.380 204.950 C 124.850 204.603,123.648 204.154,122.708 203.954 C 114.024 202.100,109.289 198.949,108.886 194.758 C 108.169 187.294,115.154 183.633,126.077 185.748 C 129.955 186.498,134.800 191.160,134.800 194.140 C 134.800 194.444,135.184 195.180,135.653 195.777 L 136.506 196.861 141.637 196.731 C 148.574 196.554,148.938 196.075,147.016 189.653 C 146.083 186.536,145.339 185.191,143.322 182.973 C 142.839 182.442,142.297 181.745,142.117 181.423 C 141.543 180.397,137.225 177.270,135.686 176.766 C 134.869 176.498,133.838 176.044,133.397 175.757 C 131.799 174.718,119.104 173.030,118.375 173.758 M275.947 173.786 C 275.844 173.889,273.974 174.260,271.791 174.612 C 269.608 174.963,267.634 175.406,267.406 175.595 C 267.177 175.785,265.957 176.326,264.695 176.799 C 263.433 177.271,262.400 177.812,262.400 178.002 C 262.400 178.191,262.012 178.469,261.537 178.620 C 260.778 178.861,259.949 179.624,256.765 183.014 C 256.344 183.462,256.000 183.990,256.000 184.188 C 256.000 184.386,255.619 184.954,255.153 185.450 C 253.426 187.288,252.728 193.427,253.647 198.703 C 254.166 201.683,259.486 208.800,261.194 208.800 C 261.386 208.800,261.817 209.074,262.152 209.409 C 262.845 210.102,267.709 212.207,270.400 212.979 C 271.390 213.262,272.830 213.775,273.600 214.117 C 274.370 214.459,276.170 215.031,277.600 215.387 C 284.999 217.232,286.651 217.711,287.200 218.169 C 287.530 218.443,288.430 218.918,289.200 219.223 C 296.207 222.003,294.228 231.442,286.143 233.800 C 280.665 235.397,272.635 234.313,269.632 231.570 C 268.975 230.970,268.271 230.416,268.067 230.340 C 267.864 230.263,266.957 228.722,266.052 226.916 C 265.147 225.110,264.023 223.426,263.554 223.175 C 262.432 222.575,253.423 222.817,252.775 223.465 C 251.358 224.882,252.717 231.679,254.927 234.230 C 257.283 236.950,262.048 241.601,262.481 241.605 C 262.767 241.608,264.050 242.142,265.333 242.793 C 266.615 243.444,268.319 244.099,269.119 244.249 C 269.919 244.399,271.299 244.833,272.186 245.215 C 275.185 246.503,286.985 246.534,288.534 245.258 C 288.790 245.046,290.052 244.600,291.337 244.265 C 292.623 243.930,293.987 243.374,294.369 243.028 C 294.751 242.683,295.235 242.400,295.445 242.400 C 299.531 242.400,306.396 231.954,306.402 225.729 C 306.411 216.047,300.465 210.255,286.200 206.049 C 284.880 205.660,283.260 205.063,282.600 204.724 C 281.940 204.385,280.690 203.978,279.821 203.821 C 272.459 202.485,267.070 198.903,266.585 195.022 C 266.313 192.845,267.279 188.400,268.024 188.400 C 268.197 188.400,268.911 187.918,269.611 187.330 C 271.857 185.440,277.401 184.769,283.323 185.670 C 287.404 186.291,290.644 189.061,291.748 192.874 C 292.761 196.368,293.546 196.800,298.880 196.800 C 305.164 196.800,305.402 196.589,304.774 191.581 C 304.015 185.532,298.652 178.478,293.567 176.843 C 292.779 176.590,291.436 176.026,290.583 175.591 C 289.729 175.156,288.484 174.797,287.815 174.794 C 287.147 174.790,285.520 174.527,284.200 174.208 C 281.943 173.663,276.356 173.378,275.947 173.786 M127.600 174.972 C 134.028 175.892,143.600 181.330,143.600 184.062 C 143.600 184.214,144.028 184.847,144.551 185.469 C 145.585 186.699,147.200 191.866,147.200 193.946 C 147.200 195.894,145.324 196.555,140.509 196.304 C 136.464 196.094,135.786 195.772,135.379 193.872 C 132.686 181.288,108.400 181.026,108.400 193.581 C 108.400 196.567,109.900 200.000,111.204 200.000 C 111.388 200.000,112.047 200.420,112.669 200.933 C 113.291 201.446,115.240 202.339,117.000 202.917 C 123.446 205.034,125.446 205.655,127.600 206.210 C 128.810 206.521,130.513 207.142,131.385 207.588 C 132.256 208.035,133.341 208.400,133.796 208.400 C 136.810 208.400,144.396 214.041,146.218 217.636 C 150.352 225.794,145.904 239.080,138.195 241.596 C 137.318 241.882,136.187 242.438,135.681 242.831 C 135.176 243.223,134.186 243.660,133.481 243.802 C 132.777 243.943,131.164 244.406,129.898 244.829 C 127.371 245.675,119.842 245.905,117.200 245.216 C 112.108 243.889,109.962 243.230,108.952 242.684 C 108.318 242.342,106.938 241.668,105.883 241.187 C 101.175 239.038,96.911 233.644,95.790 228.417 C 94.863 224.096,95.154 223.825,100.877 223.688 C 106.265 223.558,106.988 223.951,108.230 227.691 C 111.427 237.316,134.036 237.741,135.824 228.210 C 137.228 220.728,133.854 217.996,118.600 214.262 C 110.733 212.336,104.261 209.151,100.739 205.473 C 94.472 198.928,94.577 188.455,100.975 181.931 C 106.991 175.795,116.315 173.358,127.600 174.972 M285.200 174.972 C 296.268 176.556,304.334 184.287,304.390 193.369 C 304.407 196.016,303.722 196.400,298.982 196.400 C 294.123 196.400,293.837 196.230,292.233 192.400 C 290.105 187.319,286.400 184.973,279.789 184.519 C 264.188 183.447,260.045 198.136,274.600 202.917 C 280.889 204.982,283.028 205.650,285.009 206.164 C 286.114 206.451,287.581 206.977,288.268 207.332 C 288.956 207.687,290.307 208.155,291.272 208.371 C 305.431 211.544,310.335 229.102,299.762 238.765 C 297.727 240.625,291.638 244.000,290.317 244.000 C 289.992 244.000,288.679 244.360,287.400 244.800 C 284.855 245.676,277.496 245.919,274.800 245.216 C 269.708 243.889,267.562 243.230,266.552 242.684 C 265.918 242.342,264.500 241.650,263.400 241.148 C 258.313 238.823,252.800 231.037,252.800 226.178 C 252.800 223.775,253.369 223.550,259.093 223.687 L 263.791 223.800 265.261 226.764 C 270.618 237.569,289.668 238.543,293.595 228.212 C 295.995 221.902,290.426 217.265,277.234 214.590 C 275.602 214.259,274.072 213.828,273.834 213.633 C 273.595 213.438,272.590 213.078,271.600 212.833 C 269.757 212.376,268.918 212.017,263.454 209.341 C 260.239 207.766,257.983 205.631,255.459 201.778 C 253.592 198.927,253.209 190.173,254.819 187.164 C 257.050 182.996,260.263 179.767,263.919 178.017 C 265.394 177.312,267.140 176.456,267.800 176.116 C 270.681 174.630,278.990 174.084,285.200 174.972 M185.227 200.292 C 182.892 200.731,177.246 204.424,175.107 206.913 C 168.927 214.100,169.194 224.390,175.719 230.499 C 181.911 236.297,196.950 237.359,202.600 232.396 C 203.040 232.010,203.940 231.417,204.600 231.079 C 207.144 229.775,210.400 226.422,210.400 225.107 C 210.400 224.040,187.082 199.762,186.338 200.054 C 186.262 200.084,185.762 200.191,185.227 200.292 M198.036 212.354 C 204.598 218.932,209.668 224.332,209.809 224.892 C 210.059 225.891,207.485 228.680,204.800 230.318 C 204.250 230.654,203.170 231.332,202.400 231.825 C 195.368 236.328,177.873 235.036,175.650 229.850 C 175.567 229.657,175.168 229.168,174.762 228.762 C 171.201 225.201,170.201 216.879,172.699 211.600 C 173.879 209.108,177.772 204.400,178.653 204.400 C 178.886 204.400,179.393 204.050,179.779 203.623 C 180.166 203.195,180.986 202.735,181.600 202.600 C 182.214 202.465,183.034 202.005,183.421 201.577 C 185.198 199.614,185.688 199.975,198.036 212.354 M50.000 336.551 C 50.000 336.634,50.270 336.926,50.600 337.200 C 51.091 337.608,51.200 337.580,51.200 337.049 C 51.200 336.692,50.930 336.400,50.600 336.400 C 50.270 336.400,50.000 336.468,50.000 336.551 M348.800 337.049 C 348.800 337.580,348.909 337.608,349.400 337.200 C 349.730 336.926,350.000 336.634,350.000 336.551 C 350.000 336.468,349.730 336.400,349.400 336.400 C 349.070 336.400,348.800 336.692,348.800 337.049 M62.400 348.951 C 62.400 349.034,62.670 349.326,63.000 349.600 C 63.491 350.008,63.600 349.980,63.600 349.449 C 63.600 349.092,63.330 348.800,63.000 348.800 C 62.670 348.800,62.400 348.868,62.400 348.951 M336.400 349.449 C 336.400 349.980,336.509 350.008,337.000 349.600 C 337.330 349.326,337.600 349.034,337.600 348.951 C 337.600 348.868,337.330 348.800,337.000 348.800 C 336.670 348.800,336.400 349.092,336.400 349.449 " stroke="none" fill="#96cbfc" fill-rule="evenodd"></path><path id="path4" d="M187.600 154.190 C 185.756 155.256,185.009 155.548,183.478 155.797 C 182.640 155.933,181.631 156.369,181.236 156.764 C 180.840 157.160,180.018 157.609,179.410 157.762 C 178.103 158.090,174.408 161.889,174.403 162.910 C 174.401 163.300,173.950 163.791,173.400 164.000 C 172.850 164.209,172.400 164.668,172.400 165.019 C 172.400 165.370,171.969 166.410,171.443 167.329 C 169.764 170.262,169.703 180.525,171.354 182.349 C 171.704 182.736,172.104 183.619,172.242 184.311 C 172.381 185.003,172.898 185.834,173.392 186.158 C 173.885 186.481,174.397 187.284,174.528 187.942 C 174.660 188.600,175.159 189.503,175.637 189.949 L 176.507 190.759 175.355 191.979 C 174.721 192.651,173.819 193.200,173.350 193.200 C 172.882 193.200,172.263 193.483,171.976 193.829 C 171.689 194.175,170.766 194.809,169.927 195.237 C 169.087 195.666,168.400 196.197,168.400 196.418 C 168.400 196.639,167.933 196.998,167.361 197.215 C 166.790 197.432,166.233 197.951,166.124 198.368 C 166.015 198.785,165.585 199.215,165.168 199.324 C 164.751 199.433,164.232 199.990,164.015 200.561 C 163.798 201.133,163.439 201.600,163.218 201.600 C 162.997 201.600,162.466 202.287,162.037 203.127 C 161.609 203.966,160.980 204.885,160.640 205.167 C 160.300 205.449,159.906 206.292,159.766 207.040 C 159.626 207.788,159.369 208.400,159.195 208.400 C 157.260 208.400,157.068 228.036,158.989 229.441 C 159.325 229.687,159.600 230.192,159.600 230.564 C 159.600 231.555,160.675 233.466,161.385 233.739 C 161.723 233.869,162.000 234.334,162.000 234.773 C 162.000 235.213,162.369 235.769,162.819 236.010 C 163.270 236.251,163.805 236.888,164.009 237.424 C 164.213 237.961,164.626 238.400,164.926 238.400 C 165.226 238.400,165.677 238.850,165.927 239.400 C 166.182 239.960,166.720 240.400,167.149 240.400 C 167.570 240.400,168.021 240.678,168.152 241.018 C 168.282 241.358,169.046 241.911,169.848 242.246 C 170.651 242.581,171.779 243.186,172.354 243.591 C 172.929 243.995,174.100 244.445,174.955 244.591 C 175.810 244.737,177.002 245.221,177.604 245.666 C 180.020 247.453,199.244 247.405,201.677 245.607 C 202.295 245.150,203.646 244.618,204.678 244.425 C 205.711 244.232,206.752 243.807,206.991 243.480 C 207.230 243.153,208.050 242.713,208.813 242.501 C 210.843 241.938,214.295 239.620,216.761 237.165 C 218.957 234.979,219.624 235.229,224.343 240.000 C 230.163 245.885,230.663 246.093,238.598 245.928 C 249.300 245.704,249.252 245.273,237.200 233.191 C 227.102 223.069,227.714 223.768,228.719 223.505 C 229.152 223.392,229.647 222.620,229.963 221.565 C 230.252 220.602,230.828 219.575,231.244 219.284 C 231.660 218.993,232.003 218.450,232.007 218.077 C 232.011 217.705,232.461 216.976,233.007 216.458 C 233.553 215.940,234.000 215.279,234.000 214.989 C 234.000 214.699,234.427 213.953,234.948 213.331 C 235.470 212.709,236.034 211.570,236.202 210.800 C 236.370 210.030,236.829 209.175,237.222 208.900 C 237.615 208.624,238.050 207.882,238.189 207.250 C 238.328 206.618,238.882 205.686,239.421 205.181 C 239.959 204.675,240.400 203.975,240.400 203.626 C 240.400 203.278,240.743 202.778,241.161 202.517 C 242.292 201.811,242.678 198.970,241.777 197.975 C 241.144 197.275,240.504 197.200,235.164 197.200 C 228.191 197.200,227.450 197.410,226.371 199.695 C 224.716 203.199,223.671 205.043,223.045 205.563 C 222.690 205.857,222.400 206.347,222.400 206.652 C 222.400 206.956,221.952 207.594,221.405 208.070 C 220.859 208.546,220.298 209.537,220.160 210.273 C 220.022 211.009,219.686 211.744,219.413 211.906 C 219.140 212.068,218.707 212.599,218.451 213.087 C 217.988 213.970,209.436 206.234,208.670 204.239 C 208.535 203.887,208.239 203.600,208.013 203.600 C 207.463 203.600,203.012 199.130,202.667 198.231 C 202.518 197.842,202.043 197.432,201.611 197.319 C 201.180 197.206,200.721 196.782,200.593 196.377 C 200.464 195.972,200.017 195.533,199.600 195.400 C 199.183 195.267,198.733 194.817,198.600 194.400 C 198.467 193.983,198.036 193.538,197.640 193.413 C 197.245 193.287,196.718 192.738,196.469 192.192 C 196.221 191.647,195.739 191.200,195.400 191.200 C 195.061 191.200,194.579 190.753,194.331 190.208 C 194.082 189.662,193.546 189.110,193.139 188.981 C 192.733 188.852,192.400 188.492,192.400 188.182 C 192.400 187.872,191.950 187.324,191.400 186.963 C 190.850 186.603,190.400 186.055,190.400 185.745 C 190.400 185.436,189.964 184.984,189.431 184.741 C 188.898 184.498,188.362 183.917,188.241 183.450 C 188.120 182.982,187.592 182.107,187.068 181.505 C 185.340 179.518,185.171 169.917,186.855 169.383 C 187.265 169.252,187.778 168.815,187.994 168.410 C 189.702 165.219,202.000 167.173,202.000 170.636 C 202.000 170.892,202.247 171.307,202.549 171.558 C 202.852 171.809,203.219 172.918,203.365 174.023 C 203.807 177.350,204.299 177.600,210.418 177.600 C 217.533 177.600,217.784 177.379,217.516 171.353 C 217.368 168.031,217.168 166.949,216.543 166.086 C 216.110 165.489,215.524 164.428,215.241 163.729 C 214.958 163.030,214.471 162.359,214.157 162.239 C 213.844 162.119,213.409 161.548,213.189 160.972 C 212.970 160.395,212.433 159.829,211.995 159.715 C 211.558 159.600,211.200 159.280,211.200 159.002 C 211.200 158.724,210.615 158.260,209.900 157.971 C 209.185 157.682,208.510 157.335,208.400 157.200 C 207.736 156.383,206.042 155.600,204.940 155.600 C 204.234 155.600,203.416 155.358,203.120 155.063 C 201.847 153.790,200.754 153.600,194.726 153.606 C 190.119 153.610,188.352 153.755,187.600 154.190 M202.492 155.459 C 204.312 156.064,206.229 156.883,206.754 157.279 C 207.279 157.676,207.937 158.000,208.216 158.000 C 211.093 158.000,216.486 166.353,217.029 171.649 C 217.451 175.769,216.925 176.165,210.818 176.334 C 204.909 176.497,204.241 176.210,203.812 173.323 C 203.346 170.181,201.745 167.761,199.610 166.967 C 198.615 166.597,197.629 166.138,197.420 165.947 C 196.144 164.781,189.050 166.139,187.057 167.932 C 183.693 170.957,183.710 179.457,187.087 183.154 C 187.479 183.584,188.610 184.885,189.600 186.046 C 190.590 187.207,197.322 194.136,204.561 201.444 C 219.357 216.382,218.268 215.685,220.438 211.600 C 222.178 208.324,223.069 206.812,223.699 206.068 C 224.402 205.238,226.433 201.773,227.076 200.308 C 228.354 197.395,239.664 196.220,241.310 198.830 C 241.750 199.527,240.141 203.453,239.040 204.367 C 238.683 204.663,238.037 205.647,237.605 206.553 C 237.173 207.459,236.645 208.470,236.431 208.800 C 236.217 209.130,235.807 209.871,235.521 210.448 C 234.402 212.698,233.079 215.009,232.800 215.200 C 232.639 215.310,232.078 216.180,231.554 217.134 C 230.052 219.866,229.459 220.895,228.497 222.447 C 228.004 223.243,227.600 224.075,227.600 224.297 C 227.600 224.518,231.643 228.774,236.585 233.754 C 247.545 244.800,247.546 244.804,237.400 244.788 C 230.243 244.777,230.438 244.865,224.652 239.091 C 220.547 234.995,219.546 234.183,219.166 234.640 C 218.911 234.948,218.515 235.200,218.286 235.200 C 218.057 235.200,216.593 236.235,215.033 237.500 C 211.057 240.724,210.025 241.401,208.200 241.987 C 207.320 242.270,206.330 242.735,206.000 243.021 C 205.670 243.306,204.500 243.760,203.400 244.029 C 202.300 244.298,200.680 244.895,199.800 245.357 C 197.345 246.643,181.834 246.638,179.384 245.350 C 178.495 244.883,177.145 244.370,176.384 244.211 C 175.623 244.052,174.280 243.512,173.400 243.012 C 172.520 242.511,171.350 241.965,170.800 241.796 C 168.495 241.091,163.249 235.900,161.941 233.030 C 161.683 232.463,161.335 232.000,161.169 232.000 C 161.002 232.000,160.565 231.145,160.198 230.100 C 159.830 229.055,159.352 227.867,159.136 227.460 C 157.037 223.506,158.450 209.195,161.238 206.174 C 161.657 205.720,162.000 205.175,162.000 204.963 C 162.000 203.264,170.147 195.200,171.864 195.200 C 172.159 195.200,172.400 195.010,172.400 194.778 C 172.400 194.546,173.278 193.991,174.351 193.545 C 177.167 192.375,177.568 191.261,176.006 188.947 C 175.343 187.964,174.800 187.017,174.800 186.842 C 174.800 186.667,174.450 186.207,174.022 185.820 C 170.273 182.427,170.270 167.127,174.019 164.502 C 174.448 164.201,174.800 163.726,174.800 163.447 C 174.800 162.544,179.068 158.608,180.657 158.047 C 181.505 157.747,182.470 157.267,182.800 156.981 C 183.130 156.694,184.300 156.241,185.400 155.972 C 186.500 155.704,187.737 155.313,188.149 155.102 C 190.900 153.697,197.698 153.866,202.492 155.459 M117.200 172.744 C 116.430 172.910,115.350 173.329,114.800 173.677 C 114.250 174.024,112.681 174.401,111.313 174.515 C 109.686 174.650,108.477 174.996,107.816 175.516 C 107.261 175.952,106.178 176.428,105.408 176.572 C 104.639 176.716,103.828 177.174,103.605 177.590 C 103.383 178.006,102.850 178.457,102.421 178.593 C 101.992 178.730,101.536 179.172,101.407 179.577 C 101.279 179.982,100.806 180.410,100.357 180.527 C 99.908 180.645,99.445 181.106,99.329 181.552 C 99.212 181.998,98.685 182.645,98.158 182.991 C 97.631 183.336,97.200 183.980,97.200 184.422 C 97.200 184.864,96.939 185.325,96.619 185.448 C 94.462 186.276,94.449 201.719,96.604 202.546 C 96.932 202.672,97.200 203.144,97.200 203.596 C 97.200 204.076,97.601 204.600,98.166 204.857 C 98.697 205.099,99.224 205.649,99.336 206.078 C 99.449 206.508,99.908 206.955,100.357 207.073 C 100.806 207.190,101.279 207.618,101.407 208.023 C 101.536 208.428,101.992 208.870,102.421 209.007 C 102.850 209.143,103.383 209.594,103.605 210.010 C 103.828 210.426,104.639 210.884,105.408 211.028 C 106.178 211.172,107.249 211.638,107.789 212.063 C 108.329 212.487,109.880 213.030,111.237 213.269 C 112.594 213.508,114.012 214.012,114.389 214.389 C 114.768 214.768,116.019 215.186,117.192 215.324 C 118.357 215.462,119.628 215.863,120.016 216.215 C 120.405 216.566,122.045 217.046,123.661 217.281 C 125.278 217.517,127.409 218.134,128.397 218.654 C 129.385 219.174,130.690 219.600,131.297 219.600 C 131.904 219.600,132.400 219.801,132.400 220.047 C 132.400 220.293,132.940 221.109,133.600 221.861 C 136.209 224.832,134.923 229.435,130.722 232.163 C 128.239 233.775,113.943 233.311,113.400 231.601 C 113.274 231.204,112.728 230.768,112.186 230.632 C 111.644 230.496,111.200 230.122,111.200 229.802 C 111.200 229.481,110.769 228.936,110.243 228.591 C 109.562 228.145,109.206 227.434,109.011 226.132 C 108.499 222.717,107.808 222.400,100.895 222.400 C 93.058 222.400,91.780 223.740,94.334 229.278 C 94.810 230.311,95.200 231.512,95.200 231.947 C 95.200 232.383,95.650 233.273,96.200 233.927 C 96.750 234.581,97.200 235.246,97.200 235.405 C 97.200 236.009,104.012 242.400,104.655 242.400 C 105.026 242.400,106.066 242.829,106.965 243.352 C 107.864 243.876,109.402 244.438,110.383 244.602 C 111.363 244.765,112.683 245.281,113.316 245.749 C 115.067 247.044,130.505 247.060,132.266 245.768 C 132.890 245.311,134.300 244.713,135.400 244.440 C 136.500 244.167,137.760 243.619,138.200 243.224 C 138.640 242.829,139.450 242.394,140.000 242.258 C 141.287 241.939,146.800 236.483,146.800 235.528 C 146.800 235.330,147.167 234.671,147.616 234.064 C 149.603 231.377,149.313 216.400,147.274 216.400 C 147.110 216.400,146.772 215.860,146.522 215.200 C 146.273 214.540,145.779 214.000,145.425 214.000 C 145.070 214.000,144.609 213.550,144.400 213.000 C 144.191 212.450,143.766 212.000,143.456 212.000 C 143.146 212.000,142.606 211.564,142.257 211.030 C 141.907 210.497,141.239 209.939,140.771 209.791 C 140.304 209.642,139.592 209.192,139.189 208.789 C 138.787 208.387,137.590 207.933,136.529 207.780 C 135.468 207.627,134.330 207.280,134.000 207.008 C 133.121 206.283,130.873 205.600,129.369 205.600 C 128.647 205.600,127.816 205.358,127.520 205.063 C 126.632 204.175,125.503 203.717,123.475 203.423 C 122.416 203.269,120.976 202.817,120.275 202.418 C 119.574 202.019,118.241 201.581,117.314 201.444 C 116.387 201.307,114.967 200.746,114.158 200.198 C 113.350 199.649,112.447 199.200,112.152 199.200 C 111.857 199.200,111.507 198.767,111.374 198.238 C 111.241 197.709,110.698 196.867,110.166 196.368 C 108.893 195.172,108.813 192.382,110.015 191.091 C 110.464 190.610,110.934 189.807,111.059 189.308 C 111.184 188.809,111.528 188.400,111.823 188.400 C 112.118 188.400,112.830 187.963,113.407 187.429 C 115.364 185.615,126.309 185.423,128.169 187.170 C 128.654 187.627,129.349 188.000,129.712 188.000 C 130.075 188.000,130.584 188.405,130.844 188.900 C 131.104 189.395,131.558 189.942,131.852 190.116 C 132.146 190.290,132.666 191.370,133.007 192.516 C 133.348 193.662,134.124 195.320,134.732 196.200 L 135.837 197.800 141.138 197.912 L 146.438 198.023 147.619 196.843 C 148.469 195.992,148.800 195.276,148.800 194.285 C 148.800 192.159,148.054 188.725,147.441 188.028 C 147.138 187.683,146.765 186.815,146.613 186.100 C 146.461 185.385,146.173 184.800,145.973 184.800 C 145.773 184.800,145.164 184.094,144.620 183.231 C 142.813 180.369,138.349 176.400,136.937 176.400 C 136.448 176.400,135.934 176.217,135.796 175.994 C 135.351 175.273,132.748 174.400,131.045 174.400 C 130.110 174.400,128.694 174.025,127.794 173.539 C 126.061 172.604,119.976 172.147,117.200 172.744 M274.902 172.765 C 274.189 172.948,273.358 173.303,273.056 173.553 C 272.755 173.804,271.228 174.169,269.664 174.366 C 268.099 174.562,266.230 175.077,265.510 175.510 C 264.789 175.943,263.750 176.408,263.200 176.543 C 261.466 176.971,255.610 182.335,255.603 183.503 C 255.601 183.779,255.162 184.386,254.627 184.851 C 254.038 185.363,253.544 186.349,253.377 187.349 C 253.224 188.257,252.852 189.355,252.550 189.789 C 251.788 190.882,251.815 196.481,252.589 197.978 C 252.912 198.604,253.296 199.862,253.442 200.773 C 253.588 201.684,254.006 202.648,254.372 202.915 C 254.737 203.182,255.448 204.075,255.951 204.900 C 256.454 205.725,257.000 206.400,257.165 206.400 C 257.330 206.400,257.704 206.847,257.996 207.393 C 258.289 207.940,258.837 208.485,259.215 208.605 C 259.593 208.725,260.419 209.270,261.051 209.816 C 261.683 210.363,262.806 210.979,263.547 211.186 C 264.288 211.392,265.203 211.841,265.580 212.182 C 265.957 212.523,267.312 212.996,268.591 213.232 C 269.870 213.469,271.385 213.990,271.958 214.390 C 272.531 214.791,273.887 215.228,274.971 215.362 C 276.055 215.495,277.262 215.894,277.653 216.248 C 278.045 216.603,279.766 217.098,281.482 217.352 C 283.197 217.604,285.059 218.121,285.621 218.500 C 286.182 218.878,287.210 219.302,287.904 219.441 C 289.553 219.771,292.708 223.143,292.811 224.684 C 292.977 227.195,292.792 228.400,292.239 228.400 C 291.931 228.400,291.490 228.940,291.260 229.600 C 291.030 230.260,290.572 230.800,290.243 230.800 C 289.915 230.800,289.405 231.144,289.111 231.563 C 287.685 233.599,273.589 233.772,271.290 231.783 C 270.910 231.455,269.938 230.642,269.128 229.976 C 268.225 229.234,267.553 228.270,267.390 227.483 C 267.133 226.241,265.419 223.305,264.601 222.706 C 263.359 221.796,252.426 222.388,251.762 223.401 C 250.883 224.744,251.305 229.917,252.408 231.320 C 252.816 231.839,253.270 232.739,253.416 233.320 C 253.562 233.901,254.653 235.372,255.840 236.589 C 257.028 237.805,258.000 238.974,258.000 239.186 C 258.000 239.398,258.374 239.772,258.830 240.016 C 259.287 240.261,260.002 240.802,260.420 241.220 C 260.838 241.638,261.679 242.098,262.290 242.242 C 262.900 242.387,263.771 242.841,264.224 243.251 C 264.677 243.661,266.117 244.208,267.424 244.468 C 268.731 244.728,270.297 245.304,270.905 245.749 C 273.023 247.299,288.415 247.185,289.993 245.607 C 290.390 245.210,291.498 244.752,292.455 244.591 C 293.411 244.429,294.822 243.870,295.590 243.348 C 296.358 242.827,297.188 242.400,297.434 242.400 C 297.681 242.400,298.404 241.945,299.042 241.389 C 299.679 240.832,300.380 240.226,300.600 240.042 C 300.820 239.857,301.450 239.130,302.000 238.426 C 302.550 237.722,303.403 236.768,303.895 236.306 C 304.386 235.843,304.910 234.821,305.057 234.033 C 305.205 233.245,305.694 232.101,306.144 231.492 C 307.373 229.828,307.359 221.614,306.124 219.521 C 305.663 218.739,305.159 217.524,305.005 216.822 C 304.658 215.245,299.027 209.600,297.800 209.600 C 297.568 209.600,297.081 209.253,296.717 208.829 C 296.333 208.380,295.253 207.937,294.131 207.769 C 293.072 207.610,291.754 207.153,291.203 206.754 C 290.651 206.355,289.070 205.852,287.689 205.635 C 286.277 205.413,284.722 204.882,284.135 204.420 C 283.561 203.969,282.531 203.596,281.846 203.591 C 281.161 203.586,279.790 203.214,278.800 202.764 C 277.810 202.314,276.109 201.775,275.021 201.568 C 273.932 201.360,272.672 200.851,272.221 200.435 C 271.769 200.020,271.040 199.616,270.600 199.538 C 270.160 199.459,269.622 198.990,269.404 198.494 C 269.186 197.998,268.710 197.498,268.347 197.383 C 266.087 196.666,267.765 188.000,270.163 188.000 C 270.375 188.000,270.980 187.595,271.506 187.100 C 273.124 185.581,283.986 185.730,286.038 187.300 C 286.829 187.905,287.774 188.400,288.138 188.400 C 288.502 188.400,288.800 188.656,288.800 188.969 C 288.800 189.282,289.275 190.103,289.856 190.794 C 290.437 191.484,291.068 192.880,291.258 193.897 C 291.885 197.257,293.226 197.964,299.011 197.984 C 305.865 198.007,307.259 196.737,305.834 191.773 C 305.522 190.688,305.145 189.029,304.996 188.086 C 304.847 187.143,304.292 185.857,303.762 185.228 C 303.233 184.599,302.800 183.896,302.800 183.665 C 302.800 183.434,302.469 183.010,302.063 182.723 C 301.658 182.435,301.112 181.795,300.849 181.300 C 300.587 180.805,300.180 180.400,299.946 180.400 C 299.712 180.400,298.747 179.580,297.800 178.579 C 296.717 177.432,295.510 176.603,294.540 176.339 C 293.693 176.109,292.698 175.653,292.330 175.325 C 291.961 174.997,290.521 174.633,289.130 174.515 C 287.628 174.388,286.051 173.970,285.250 173.487 C 283.752 172.584,277.351 172.137,274.902 172.765 M128.797 174.550 C 130.885 174.927,132.955 175.470,133.397 175.757 C 133.838 176.044,134.869 176.498,135.686 176.766 C 137.225 177.270,141.543 180.397,142.117 181.423 C 142.297 181.745,142.839 182.442,143.322 182.973 C 145.339 185.191,146.083 186.536,147.016 189.653 C 148.938 196.075,148.574 196.554,141.637 196.731 L 136.506 196.861 135.653 195.777 C 135.184 195.180,134.800 194.444,134.800 194.140 C 134.800 191.160,129.955 186.498,126.077 185.748 C 115.154 183.633,108.169 187.294,108.886 194.758 C 109.091 196.888,110.151 198.377,113.000 200.540 C 114.168 201.427,119.264 203.218,122.708 203.954 C 123.648 204.154,124.850 204.603,125.380 204.950 C 125.910 205.297,127.121 205.697,128.072 205.837 C 129.022 205.978,130.361 206.412,131.048 206.802 C 131.734 207.192,133.186 207.702,134.276 207.936 C 136.666 208.449,140.008 210.076,141.505 211.457 C 142.107 212.013,143.376 213.193,144.325 214.079 C 151.944 221.198,148.665 237.196,138.603 241.998 C 137.189 242.674,135.933 243.384,135.813 243.578 C 135.694 243.772,134.856 244.055,133.952 244.208 C 133.047 244.361,131.473 244.857,130.454 245.310 C 127.686 246.540,117.484 246.517,114.674 245.274 C 113.624 244.810,112.098 244.316,111.283 244.178 C 110.467 244.039,109.334 243.598,108.764 243.198 C 108.194 242.798,106.940 242.234,105.977 241.946 C 104.159 241.401,97.200 235.084,97.200 233.978 C 97.200 233.695,96.945 233.179,96.633 232.831 C 95.862 231.974,94.426 226.042,94.675 224.742 C 94.970 223.197,96.317 222.800,101.272 222.800 L 105.706 222.800 107.004 224.177 C 107.718 224.934,108.420 226.180,108.564 226.946 C 108.810 228.259,110.098 229.919,112.413 231.906 C 118.531 237.159,133.427 234.584,135.209 227.966 C 136.182 224.352,134.142 219.200,131.737 219.200 C 131.399 219.200,130.640 218.856,130.049 218.435 C 129.064 217.734,127.396 217.228,120.000 215.389 C 118.570 215.034,116.680 214.420,115.800 214.025 C 114.920 213.630,113.570 213.176,112.800 213.015 C 111.430 212.728,110.605 212.392,105.869 210.193 C 92.284 203.886,92.305 183.665,105.903 177.397 C 107.166 176.815,108.740 176.080,109.400 175.763 C 110.060 175.447,112.302 174.914,114.382 174.579 C 116.461 174.244,118.258 173.875,118.375 173.758 C 118.753 173.381,124.900 173.848,128.797 174.550 M284.200 174.208 C 285.520 174.527,287.147 174.790,287.815 174.794 C 288.484 174.797,289.729 175.156,290.583 175.591 C 291.436 176.026,292.779 176.590,293.567 176.843 C 298.652 178.478,304.015 185.532,304.774 191.581 C 305.402 196.589,305.164 196.800,298.880 196.800 C 293.546 196.800,292.761 196.368,291.748 192.874 C 290.644 189.061,287.404 186.291,283.323 185.670 C 277.401 184.769,271.857 185.440,269.611 187.330 C 268.911 187.918,268.197 188.400,268.024 188.400 C 267.279 188.400,266.313 192.845,266.585 195.022 C 267.070 198.903,272.459 202.485,279.821 203.821 C 280.690 203.978,281.940 204.385,282.600 204.724 C 283.260 205.063,284.880 205.660,286.200 206.049 C 300.465 210.255,306.411 216.047,306.402 225.729 C 306.396 231.954,299.531 242.400,295.445 242.400 C 295.235 242.400,294.751 242.683,294.369 243.028 C 293.987 243.374,292.623 243.930,291.337 244.265 C 290.052 244.600,288.790 245.046,288.534 245.258 C 286.985 246.534,275.185 246.503,272.186 245.215 C 271.299 244.833,269.919 244.399,269.119 244.249 C 268.319 244.099,266.615 243.444,265.333 242.793 C 264.050 242.142,262.767 241.608,262.481 241.605 C 262.048 241.601,257.283 236.950,254.927 234.230 C 252.717 231.679,251.358 224.882,252.775 223.465 C 253.423 222.817,262.432 222.575,263.554 223.175 C 264.023 223.426,265.147 225.110,266.052 226.916 C 266.957 228.722,267.864 230.263,268.067 230.340 C 268.271 230.416,268.975 230.970,269.632 231.570 C 272.635 234.313,280.665 235.397,286.143 233.800 C 294.228 231.442,296.207 222.003,289.200 219.223 C 288.430 218.918,287.530 218.443,287.200 218.169 C 286.651 217.711,284.999 217.232,277.600 215.387 C 276.170 215.031,274.370 214.459,273.600 214.117 C 272.830 213.775,271.390 213.262,270.400 212.979 C 267.709 212.207,262.845 210.102,262.152 209.409 C 261.817 209.074,261.386 208.800,261.194 208.800 C 259.486 208.800,254.166 201.683,253.647 198.703 C 252.728 193.427,253.426 187.288,255.153 185.450 C 255.619 184.954,256.000 184.386,256.000 184.188 C 256.000 183.990,256.344 183.462,256.765 183.014 C 259.949 179.624,260.778 178.861,261.537 178.620 C 262.012 178.469,262.400 178.191,262.400 178.002 C 262.400 177.812,263.433 177.271,264.695 176.799 C 265.957 176.326,267.177 175.785,267.406 175.595 C 267.634 175.406,269.608 174.963,271.791 174.612 C 273.974 174.260,275.844 173.889,275.947 173.786 C 276.356 173.378,281.943 173.663,284.200 174.208 M183.421 201.577 C 183.034 202.005,182.214 202.465,181.600 202.600 C 180.986 202.735,180.166 203.195,179.779 203.623 C 179.393 204.050,178.886 204.400,178.653 204.400 C 177.772 204.400,173.879 209.108,172.699 211.600 C 170.201 216.879,171.201 225.201,174.762 228.762 C 175.168 229.168,175.567 229.657,175.650 229.850 C 177.873 235.036,195.368 236.328,202.400 231.825 C 203.170 231.332,204.250 230.654,204.800 230.318 C 207.485 228.680,210.059 225.891,209.809 224.892 C 209.668 224.332,204.598 218.932,198.036 212.354 C 185.688 199.975,185.198 199.614,183.421 201.577 M188.903 204.300 C 190.455 205.785,192.461 207.788,193.362 208.751 C 194.263 209.713,195.695 211.153,196.544 211.951 C 197.393 212.748,198.743 214.100,199.544 214.955 C 203.211 218.872,203.964 219.600,204.355 219.600 C 204.584 219.600,204.987 220.002,205.249 220.492 C 205.512 220.983,206.111 221.687,206.581 222.057 C 207.051 222.426,207.788 223.386,208.218 224.190 L 209.000 225.650 207.200 227.221 C 206.210 228.084,205.003 229.138,204.518 229.563 C 204.033 229.987,203.227 230.465,202.726 230.624 C 202.225 230.782,201.362 231.239,200.808 231.639 C 197.572 233.971,180.819 234.257,180.064 231.992 C 179.988 231.765,179.238 231.228,178.398 230.799 C 176.466 229.813,174.075 226.921,173.545 224.929 C 173.322 224.088,172.771 222.623,172.321 221.674 C 171.412 219.755,171.544 216.668,172.604 215.051 C 172.914 214.577,173.366 213.265,173.609 212.134 C 173.851 211.004,174.398 209.764,174.825 209.378 C 175.251 208.992,175.600 208.439,175.600 208.148 C 175.600 207.858,176.140 207.341,176.800 207.000 C 177.460 206.659,178.000 206.150,178.000 205.870 C 178.000 205.590,178.604 205.142,179.343 204.875 C 180.081 204.608,181.009 204.032,181.405 203.595 C 181.800 203.158,182.436 202.800,182.816 202.800 C 183.197 202.800,184.024 202.531,184.654 202.202 C 185.284 201.874,185.863 201.604,185.941 201.602 C 186.018 201.601,187.351 202.815,188.903 204.300 " stroke="none" fill="#78bcfc" fill-rule="evenodd"></path></g></svg>